Neuton-SC-Regular.ufo
<glyph name="quotedbl" format="1">
  <advance width="497"/>
  <unicode hex="0022"/>
  <outline>
    <contour>
      <point x="50" y="1302" type="line"/>
      <point x="233" y="1286" type="line"/>
      <point x="197" y="903" type="line"/>
      <point x="104" y="892" type="line"/>
    </contour>
    <contour>
      <point x="258" y="1302" type="line"/>
      <point x="442" y="1286" type="line"/>
      <point x="406" y="903" type="line"/>
      <point x="311" y="892" type="line"/>
    </contour>
  </outline>
</glyph>
<glyph name="dollar" format="1">
  <advance width="859"/>
  <unicode hex="0024"/>
  <outline>
    <contour>
      <point x="50" y="141" type="curve" smooth="yes"/>
      <point x="50" y="208"/>
      <point x="99" y="265"/>
      <point x="182" y="271" type="curve"/>
      <point x="225" y="130"/>
      <point x="295" y="64"/>
      <point x="371" y="64" type="curve" smooth="yes"/>
      <point x="441" y="64"/>
      <point x="503" y="91"/>
      <point x="503" y="165" type="curve" smooth="yes"/>
      <point x="503" y="324"/>
      <point x="74" y="354"/>
      <point x="74" y="624" type="curve" smooth="yes"/>
      <point x="74" y="740"/>
      <point x="170" y="900"/>
      <point x="372" y="900" type="curve" smooth="yes"/>
      <point x="503" y="900"/>
      <point x="617" y="845"/>
      <point x="617" y="734" type="curve" smooth="yes"/>
      <point x="617" y="651"/>
      <point x="564" y="595"/>
      <point x="477" y="589" type="curve"/>
      <point x="463" y="746"/>
      <point x="396.574" y="816"/>
      <point x="321" y="816" type="curve" smooth="yes"/>
      <point x="251" y="816"/>
      <point x="209" y="760"/>
      <point x="209" y="696" type="curve" smooth="yes"/>
      <point x="209" y="509"/>
      <point x="648" y="487"/>
      <point x="648" y="220" type="curve" smooth="yes"/>
      <point x="648" y="72"/>
      <point x="494" y="-34"/>
      <point x="340" y="-34" type="curve" smooth="yes"/>
      <point x="162" y="-34"/>
      <point x="50" y="51"/>
    </contour>
    <contour>
      <point x="298" y="-197" type="line"/>
      <point x="315" y="-15" type="line"/>
      <point x="421" y="-6" type="line"/>
      <point x="437" y="-179" type="line"/>
    </contour>
    <contour>
      <point x="305" y="1041" type="line"/>
      <point x="437" y="1058" type="line"/>
      <point x="421" y="889" type="line"/>
      <point x="321" y="889" type="line"/>
    </contour>
  </outline>
</glyph>
<glyph name="ampersand" format="1">
  <advance width="1281"/>
  <unicode hex="0026"/>
  <outline>
    <contour>
      <point x="147" y="182" type="curve" smooth="yes"/>
      <point x="147" y="462"/>
      <point x="594" y="483"/>
      <point x="594" y="720" type="curve" smooth="yes"/>
      <point x="594" y="822"/>
      <point x="544" y="864"/>
      <point x="487" y="864" type="curve" smooth="yes"/>
      <point x="444" y="864"/>
      <point x="407" y="811"/>
      <point x="407" y="752" type="curve" smooth="yes"/>
      <point x="407" y="701"/>
      <point x="423" y="658"/>
      <point x="493" y="571" type="curve" smooth="yes"/>
      <point x="779" y="256" type="line" smooth="yes"/>
      <point x="886" y="138"/>
      <point x="975" y="100"/>
      <point x="1043" y="81" type="curve" smooth="yes"/>
      <point x="1076" y="71" type="line"/>
      <point x="1062" y="2" type="line"/>
      <point x="1025" y="-11"/>
      <point x="986" y="-18"/>
      <point x="943" y="-18" type="curve" smooth="yes"/>
      <point x="826" y="-18"/>
      <point x="719" y="68"/>
      <point x="662" y="131" type="curve" smooth="yes"/>
      <point x="326" y="507" type="line" smooth="yes"/>
      <point x="284" y="561"/>
      <point x="245" y="631"/>
      <point x="245" y="703" type="curve" smooth="yes"/>
      <point x="245" y="826"/>
      <point x="366" y="947"/>
      <point x="507" y="947" type="curve" smooth="yes"/>
      <point x="650" y="947"/>
      <point x="740" y="864"/>
      <point x="740" y="753" type="curve" smooth="yes"/>
      <point x="740" y="463"/>
      <point x="335" y="491"/>
      <point x="335" y="216" type="curve" smooth="yes"/>
      <point x="335" y="163"/>
      <point x="387" y="99"/>
      <point x="457" y="99" type="curve" smooth="yes"/>
      <point x="591" y="99"/>
      <point x="700" y="192"/>
      <point x="836" y="497" type="curve"/>
      <point x="722" y="539" type="line"/>
      <point x="732" y="607" type="line"/>
      <point x="1106" y="607" type="line"/>
      <point x="1096" y="539" type="line"/>
      <point x="946" y="500" type="line"/>
      <point x="773" y="182"/>
      <point x="668" y="-19"/>
      <point x="396" y="-19" type="curve" smooth="yes"/>
      <point x="243" y="-19"/>
      <point x="147" y="63"/>
    </contour>
  </outline>
</glyph>
<glyph name="parenleft" format="1">
  <advance width="477"/>
  <unicode hex="0028"/>
  <outline>
    <contour>
      <point x="49" y="445" type="curve" smooth="yes"/>
      <point x="49" y="970"/>
      <point x="320" y="1199"/>
      <point x="386" y="1255" type="curve"/>
      <point x="436" y="1189" type="line"/>
      <point x="350" y="1076"/>
      <point x="227" y="879"/>
      <point x="227" y="455" type="curve" smooth="yes"/>
      <point x="227" y="40"/>
      <point x="405" y="-244"/>
      <point x="449" y="-317" type="curve"/>
      <point x="381" y="-375" type="line"/>
      <point x="331" y="-328"/>
      <point x="49" y="-70"/>
    </contour>
  </outline>
</glyph>
<glyph name="parenright" format="1">
  <advance width="477"/>
  <unicode hex="0029"/>
  <outline>
    <contour>
      <point x="30" y="-317" type="line"/>
      <point x="74" y="-244"/>
      <point x="253" y="40"/>
      <point x="253" y="455" type="curve" smooth="yes"/>
      <point x="253" y="879"/>
      <point x="130" y="1076"/>
      <point x="44" y="1189" type="curve"/>
      <point x="93" y="1255" type="line"/>
      <point x="159" y="1199"/>
      <point x="431" y="970"/>
      <point x="431" y="445" type="curve" smooth="yes"/>
      <point x="431" y="-70"/>
      <point x="149" y="-328"/>
      <point x="99" y="-375" type="curve"/>
    </contour>
  </outline>
</glyph>
<glyph name="hyphen" format="1">
  <advance width="581"/>
  <unicode hex="002D"/>
  <outline>
    <contour>
      <point x="81" y="398" type="line"/>
      <point x="92" y="498" type="line"/>
      <point x="500" y="517" type="line"/>
      <point x="489" y="415" type="line"/>
    </contour>
  </outline>
</glyph>
<glyph name="period" format="1">
  <advance width="383"/>
  <unicode hex="002E"/>
  <outline>
    <contour>
      <point x="73" y="92" type="curve" smooth="yes"/>
      <point x="73" y="156"/>
      <point x="127" y="205"/>
      <point x="191" y="205" type="curve" smooth="yes"/>
      <point x="257" y="205"/>
      <point x="313" y="154"/>
      <point x="313" y="90" type="curve" smooth="yes"/>
      <point x="313" y="23"/>
      <point x="257" y="-31"/>
      <point x="191" y="-31" type="curve" smooth="yes"/>
      <point x="125" y="-31"/>
      <point x="73" y="25"/>
    </contour>
  </outline>
</glyph>
<glyph name="one" format="1">
  <advance width="588"/>
  <unicode hex="0031"/>
  <outline>
    <contour>
      <point x="35" y="0" type="line"/>
      <point x="44" y="74" type="line"/>
      <point x="228" y="121" type="line"/>
      <point x="228" y="802" type="line"/>
      <point x="55" y="805" type="line"/>
      <point x="64" y="882" type="line"/>
      <point x="368" y="956" type="line"/>
      <point x="396" y="956" type="line"/>
      <point x="396" y="114" type="line"/>
      <point x="585" y="80" type="line"/>
      <point x="575" y="0" type="line"/>
    </contour>
  </outline>
</glyph>
<glyph name="two" format="1">
  <advance width="791"/>
  <unicode hex="0032"/>
  <outline>
    <contour>
      <point x="40" y="102" type="line"/>
      <point x="295" y="300" type="line"/>
      <point x="463" y="432"/>
      <point x="497" y="561"/>
      <point x="497" y="658" type="curve" smooth="yes"/>
      <point x="497" y="796"/>
      <point x="436" y="867"/>
      <point x="343" y="867" type="curve" smooth="yes"/>
      <point x="257" y="867"/>
      <point x="166" y="782"/>
      <point x="133" y="675" type="curve"/>
      <point x="58" y="704" type="line"/>
      <point x="74" y="800"/>
      <point x="209" y="987"/>
      <point x="417" y="991" type="curve" smooth="yes"/>
      <point x="606" y="994"/>
      <point x="702" y="860"/>
      <point x="702" y="703" type="curve" smooth="yes"/>
      <point x="702" y="509"/>
      <point x="522" y="348"/>
      <point x="328" y="206" type="curve"/>
      <point x="244" y="147" type="line"/>
      <point x="615" y="147" type="line"/>
      <point x="693" y="301" type="line"/>
      <point x="764" y="292" type="line"/>
      <point x="710" y="0" type="line"/>
      <point x="47" y="0" type="line"/>
    </contour>
  </outline>
</glyph>
<glyph name="three" format="1">
  <advance width="692"/>
  <unicode hex="0033"/>
  <outline>
    <contour>
      <point x="-44" y="-159" type="curve" smooth="yes"/>
      <point x="-44" y="-110"/>
      <point x="9" y="-46"/>
      <point x="92" y="-38" type="curve"/>
      <point x="98" y="-81"/>
      <point x="139" y="-210"/>
      <point x="235" y="-210" type="curve" smooth="yes"/>
      <point x="420" y="-210"/>
      <point x="466" y="-86"/>
      <point x="466" y="30" type="curve" smooth="yes"/>
      <point x="466" y="156"/>
      <point x="366" y="298"/>
      <point x="179" y="303" type="curve"/>
      <point x="169" y="370" type="line"/>
      <point x="298" y="411"/>
      <point x="436" y="506"/>
      <point x="436" y="687" type="curve" smooth="yes"/>
      <point x="436" y="774"/>
      <point x="400" y="857"/>
      <point x="310" y="857" type="curve" smooth="yes"/>
      <point x="202" y="857"/>
      <point x="149" y="788"/>
      <point x="112" y="698" type="curve"/>
      <point x="34" y="725" type="line"/>
      <point x="53" y="830"/>
      <point x="190" y="991"/>
      <point x="368" y="991" type="curve" smooth="yes"/>
      <point x="519" y="991"/>
      <point x="623" y="884"/>
      <point x="623" y="739" type="curve" smooth="yes"/>
      <point x="623" y="582"/>
      <point x="469" y="450"/>
      <point x="381" y="412" type="curve"/>
      <point x="381" y="401" type="line"/>
      <point x="531" y="384"/>
      <point x="654" y="241"/>
      <point x="654" y="83" type="curve" smooth="yes"/>
      <point x="654" y="-107"/>
      <point x="461" y="-297"/>
      <point x="215" y="-297" type="curve" smooth="yes"/>
      <point x="41" y="-297"/>
      <point x="-44" y="-225"/>
    </contour>
  </outline>
</glyph>
<glyph name="four" format="1">
  <advance width="940"/>
  <unicode hex="0034"/>
  <outline>
    <contour>
      <point x="-9" y="164" type="line"/>
      <point x="618" y="986" type="line"/>
      <point x="683" y="968" type="line"/>
      <point x="677" y="849"/>
      <point x="673" y="613"/>
      <point x="673" y="432" type="curve" smooth="yes"/>
      <point x="673" y="211" type="line"/>
      <point x="927" y="211" type="line"/>
      <point x="910" y="86" type="line"/>
      <point x="675" y="86" type="line"/>
      <point x="675" y="-267" type="line"/>
      <point x="500" y="-304" type="line"/>
      <point x="500" y="89" type="line"/>
      <point x="14" y="89" type="line"/>
    </contour>
    <contour>
      <point x="169" y="211" type="line"/>
      <point x="499" y="211" type="line"/>
      <point x="499" y="676" type="line"/>
    </contour>
  </outline>
</glyph>
<glyph name="seven" format="1">
  <advance width="706"/>
  <unicode hex="0037"/>
  <outline>
    <contour>
      <point x="15" y="617" type="line"/>
      <point x="55" y="945" type="line"/>
      <point x="693" y="945" type="line"/>
      <point x="706" y="850" type="line"/>
      <point x="484" y="448"/>
      <point x="305" y="139"/>
      <point x="252" y="-295" type="curve"/>
      <point x="241" y="-296"/>
      <point x="216" y="-304"/>
      <point x="206" y="-304" type="curve" smooth="yes"/>
      <point x="121" y="-304"/>
      <point x="84" y="-253"/>
      <point x="84" y="-189" type="curve" smooth="yes"/>
      <point x="84" y="-26"/>
      <point x="424" y="550"/>
      <point x="565" y="786" type="curve"/>
      <point x="147" y="786" type="line"/>
      <point x="83" y="604" type="line"/>
    </contour>
  </outline>
</glyph>
<glyph name="nine" format="1">
  <advance width="778"/>
  <unicode hex="0039"/>
  <outline>
    <contour>
      <point x="25" y="581" type="curve" smooth="yes"/>
      <point x="25" y="800"/>
      <point x="199" y="972"/>
      <point x="390" y="972" type="curve" smooth="yes"/>
      <point x="653" y="972"/>
      <point x="744" y="755"/>
      <point x="744" y="521" type="curve" smooth="yes"/>
      <point x="744" y="186"/>
      <point x="479" y="-177"/>
      <point x="148" y="-282" type="curve"/>
      <point x="125" y="-208" type="line"/>
      <point x="417" y="-84"/>
      <point x="504" y="140"/>
      <point x="544" y="338" type="curve"/>
      <point x="532" y="338" type="line"/>
      <point x="483" y="271"/>
      <point x="401" y="230"/>
      <point x="314" y="230" type="curve" smooth="yes"/>
      <point x="120" y="230"/>
      <point x="25" y="356"/>
    </contour>
    <contour>
      <point x="208" y="607" type="curve" smooth="yes"/>
      <point x="208" y="424"/>
      <point x="262" y="338"/>
      <point x="387" y="338" type="curve" smooth="yes"/>
      <point x="457" y="338"/>
      <point x="519" y="374"/>
      <point x="550" y="424" type="curve"/>
      <point x="558" y="470"/>
      <point x="557" y="525"/>
      <point x="557" y="565" type="curve" smooth="yes"/>
      <point x="557" y="729"/>
      <point x="491" y="891"/>
      <point x="375" y="891" type="curve" smooth="yes"/>
      <point x="275" y="891"/>
      <point x="208" y="813"/>
    </contour>
  </outline>
</glyph>
<glyph name="semicolon" format="1">
  <advance width="462"/>
  <unicode hex="003B"/>
  <outline>
    <contour>
      <point x="77" y="-230" type="line"/>
      <point x="199" y="-198"/>
      <point x="246" y="-131"/>
      <point x="246" y="-70" type="curve" smooth="yes"/>
      <point x="246" y="-18"/>
      <point x="204" y="31"/>
      <point x="138" y="31" type="curve" smooth="yes"/>
      <point x="129" y="31"/>
      <point x="119" y="29"/>
      <point x="110" y="28" type="curve"/>
      <point x="102" y="47"/>
      <point x="96" y="66"/>
      <point x="96" y="87" type="curve" smooth="yes"/>
      <point x="96" y="161"/>
      <point x="163" y="199"/>
      <point x="210" y="199" type="curve" smooth="yes"/>
      <point x="274" y="199"/>
      <point x="372" y="145"/>
      <point x="372" y="6" type="curve" smooth="yes"/>
      <point x="372" y="-81"/>
      <point x="342" y="-231"/>
      <point x="98" y="-295" type="curve"/>
    </contour>
    <contour>
      <point x="126" y="744" type="curve" smooth="yes"/>
      <point x="126" y="806"/>
      <point x="178" y="853"/>
      <point x="240" y="853" type="curve" smooth="yes"/>
      <point x="304" y="853"/>
      <point x="356" y="805"/>
      <point x="356" y="743" type="curve" smooth="yes"/>
      <point x="356" y="678"/>
      <point x="304" y="626"/>
      <point x="240" y="626" type="curve" smooth="yes"/>
      <point x="176" y="626"/>
      <point x="126" y="679"/>
    </contour>
  </outline>
</glyph>
<glyph name="less" format="1">
  <advance width="713"/>
  <unicode hex="003C"/>
  <outline>
    <contour>
      <point x="756" y="-13" type="line"/>
      <point x="296" y="434" type="line"/>
      <point x="736" y="900" type="line"/>
      <point x="680" y="973" type="line"/>
      <point x="60" y="472" type="line"/>
      <point x="59" y="415" type="line"/>
      <point x="693" y="-83" type="line"/>
    </contour>
  </outline>
</glyph>
<glyph name="greater" format="1">
  <advance width="727"/>
  <unicode hex="003E"/>
  <outline>
    <contour>
      <point x="59" y="-13" type="line"/>
      <point x="519" y="434" type="line"/>
      <point x="79" y="900" type="line"/>
      <point x="135" y="973" type="line"/>
      <point x="755" y="472" type="line"/>
      <point x="756" y="415" type="line"/>
      <point x="122" y="-83" type="line"/>
    </contour>
  </outline>
</glyph>
<glyph name="at" format="1">
  <advance width="1367"/>
  <unicode hex="0040"/>
  <outline>
    <contour>
      <point x="54" y="325" type="curve" smooth="yes"/>
      <point x="54" y="723"/>
      <point x="356" y="1044"/>
      <point x="787" y="1044" type="curve" smooth="yes"/>
      <point x="1067" y="1044"/>
      <point x="1306" y="863"/>
      <point x="1306" y="589" type="curve" smooth="yes"/>
      <point x="1306" y="319"/>
      <point x="1106" y="70"/>
      <point x="832" y="70" type="curve" smooth="yes"/>
      <point x="764" y="70"/>
      <point x="735" y="117"/>
      <point x="738" y="187" type="curve"/>
      <point x="728" y="187" type="line"/>
      <point x="688" y="128"/>
      <point x="617" y="59"/>
      <point x="541" y="59" type="curve" smooth="yes"/>
      <point x="436" y="59"/>
      <point x="360" y="155"/>
      <point x="360" y="326" type="curve" smooth="yes"/>
      <point x="360" y="611"/>
      <point x="590" y="789"/>
      <point x="758" y="789" type="curve" smooth="yes"/>
      <point x="811" y="789"/>
      <point x="867" y="786"/>
      <point x="924" y="773" type="curve"/>
      <point x="943" y="751" type="line"/>
      <point x="902" y="385" type="line" smooth="yes"/>
      <point x="893" y="301"/>
      <point x="866" y="168"/>
      <point x="914" y="168" type="curve" smooth="yes"/>
      <point x="1065" y="168"/>
      <point x="1173" y="346"/>
      <point x="1173" y="549" type="curve" smooth="yes"/>
      <point x="1173" y="810"/>
      <point x="987" y="955"/>
      <point x="751" y="955" type="curve" smooth="yes"/>
      <point x="422" y="955"/>
      <point x="209" y="665"/>
      <point x="209" y="351" type="curve" smooth="yes"/>
      <point x="209" y="56"/>
      <point x="399" y="-135"/>
      <point x="727" y="-135" type="curve" smooth="yes"/>
      <point x="877" y="-135"/>
      <point x="1032" y="-59"/>
      <point x="1079" y="-19" type="curve"/>
      <point x="1115" y="-83" type="line"/>
      <point x="1026" y="-136"/>
      <point x="906" y="-228"/>
      <point x="691" y="-228" type="curve" smooth="yes"/>
      <point x="387" y="-228"/>
      <point x="54" y="-77"/>
    </contour>
    <contour>
      <point x="516" y="368" type="curve" smooth="yes"/>
      <point x="516" y="217"/>
      <point x="551" y="181"/>
      <point x="601" y="181" type="curve" smooth="yes"/>
      <point x="654" y="181"/>
      <point x="705" y="214"/>
      <point x="739" y="254" type="curve"/>
      <point x="792" y="692" type="line"/>
      <point x="773" y="696"/>
      <point x="735" y="703"/>
      <point x="704" y="703" type="curve" smooth="yes"/>
      <point x="588" y="703"/>
      <point x="516" y="522"/>
    </contour>
  </outline>
</glyph>
<glyph name="B" format="1">
  <advance width="1127"/>
  <unicode hex="0042"/>
  <outline>
    <contour>
      <point x="50" y="0" type="line"/>
      <point x="61" y="74" type="line"/>
      <point x="228" y="121" type="line"/>
      <point x="228" y="1104" type="line"/>
      <point x="57" y="1134" type="line"/>
      <point x="67" y="1211" type="line"/>
      <point x="212" y="1232"/>
      <point x="382" y="1257"/>
      <point x="559" y="1257" type="curve" smooth="yes"/>
      <point x="869" y="1257"/>
      <point x="996" y="1118"/>
      <point x="996" y="967" type="curve" smooth="yes"/>
      <point x="996" y="863"/>
      <point x="947" y="736"/>
      <point x="790" y="679" type="curve"/>
      <point x="790" y="672" type="line"/>
      <point x="995" y="661"/>
      <point x="1100" y="512"/>
      <point x="1100" y="380" type="curve" smooth="yes"/>
      <point x="1100" y="192"/>
      <point x="970" y="0"/>
      <point x="568" y="0" type="curve" smooth="yes"/>
    </contour>
    <contour>
      <point x="420" y="96" type="line"/>
      <point x="640" y="96" type="line" smooth="yes"/>
      <point x="814" y="96"/>
      <point x="904" y="218"/>
      <point x="904" y="347" type="curve" smooth="yes"/>
      <point x="904" y="471"/>
      <point x="818" y="605"/>
      <point x="643" y="605" type="curve" smooth="yes"/>
      <point x="420" y="605" type="line"/>
    </contour>
    <contour>
      <point x="420" y="688" type="line"/>
      <point x="678" y="688" type="line"/>
      <point x="764" y="724"/>
      <point x="808" y="795"/>
      <point x="808" y="909" type="curve" smooth="yes"/>
      <point x="808" y="1033"/>
      <point x="743" y="1171"/>
      <point x="500" y="1171" type="curve" smooth="yes"/>
      <point x="476" y="1171"/>
      <point x="447" y="1168"/>
      <point x="420" y="1164" type="curve"/>
    </contour>
  </outline>
</glyph>
<glyph name="C" format="1">
  <advance width="1111"/>
  <unicode hex="0043"/>
  <outline>
    <contour>
      <point x="61" y="589" type="curve" smooth="yes"/>
      <point x="61" y="884"/>
      <point x="246" y="1269"/>
      <point x="704" y="1269" type="curve" smooth="yes"/>
      <point x="836" y="1269"/>
      <point x="970" y="1242"/>
      <point x="1066" y="1169" type="curve"/>
      <point x="1035" y="837" type="line"/>
      <point x="947" y="850" type="line"/>
      <point x="905" y="1070" type="line"/>
      <point x="859" y="1129"/>
      <point x="776" y="1174"/>
      <point x="647" y="1174" type="curve" smooth="yes"/>
      <point x="439" y="1174"/>
      <point x="275" y="980"/>
      <point x="275" y="658" type="curve" smooth="yes"/>
      <point x="275" y="299"/>
      <point x="491" y="111"/>
      <point x="728" y="111" type="curve" smooth="yes"/>
      <point x="862" y="111"/>
      <point x="992" y="182"/>
      <point x="1078" y="261" type="curve"/>
      <point x="1113" y="185" type="line"/>
      <point x="1034" y="89"/>
      <point x="859" y="-24"/>
      <point x="651" y="-24" type="curve" smooth="yes"/>
      <point x="344" y="-24"/>
      <point x="61" y="190"/>
    </contour>
  </outline>
</glyph>
<glyph name="D" format="1">
  <advance width="1327"/>
  <unicode hex="0044"/>
  <outline>
    <contour>
      <point x="47" y="0" type="line"/>
      <point x="61" y="74" type="line"/>
      <point x="233" y="129" type="line"/>
      <point x="233" y="1103" type="line"/>
      <point x="61" y="1133" type="line"/>
      <point x="70" y="1209" type="line"/>
      <point x="267" y="1240"/>
      <point x="438" y="1258"/>
      <point x="583" y="1258" type="curve" smooth="yes"/>
      <point x="1145" y="1258"/>
      <point x="1304" y="961"/>
      <point x="1304" y="653" type="curve" smooth="yes"/>
      <point x="1304" y="311"/>
      <point x="1053" y="0"/>
      <point x="541" y="0" type="curve" smooth="yes"/>
    </contour>
    <contour>
      <point x="424" y="104" type="line"/>
      <point x="569" y="104" type="line" smooth="yes"/>
      <point x="924" y="104"/>
      <point x="1093" y="331"/>
      <point x="1093" y="598" type="curve" smooth="yes"/>
      <point x="1093" y="905"/>
      <point x="914" y="1155"/>
      <point x="546" y="1155" type="curve" smooth="yes"/>
      <point x="506" y="1155"/>
      <point x="464" y="1155"/>
      <point x="424" y="1151" type="curve"/>
    </contour>
  </outline>
</glyph>
<glyph name="F" format="1">
  <advance width="1028"/>
  <unicode hex="0046"/>
  <outline>
    <contour>
      <point x="50" y="1168" type="line"/>
      <point x="61" y="1244" type="line"/>
      <point x="1054" y="1244" type="line"/>
      <point x="1013" y="922" type="line"/>
      <point x="925" y="936" type="line"/>
      <point x="891" y="1152" type="line"/>
      <point x="426" y="1152" type="line"/>
      <point x="426" y="670" type="line"/>
      <point x="713" y="670" type="line"/>
      <point x="755" y="790" type="line"/>
      <point x="845" y="804" type="line"/>
      <point x="818" y="412" type="line"/>
      <point x="730" y="398" type="line"/>
      <point x="700" y="578" type="line"/>
      <point x="426" y="578" type="line"/>
      <point x="423" y="122" type="line"/>
      <point x="661" y="83" type="line"/>
      <point x="648" y="0" type="line"/>
      <point x="57" y="0" type="line"/>
      <point x="65" y="74" type="line"/>
      <point x="232" y="121" type="line"/>
      <point x="232" y="1126" type="line"/>
    </contour>
  </outline>
</glyph>
<glyph name="I" format="1">
  <advance width="601"/>
  <unicode hex="0049"/>
  <outline>
    <contour>
      <point x="50" y="1168" type="line"/>
      <point x="61" y="1244" type="line"/>
      <point x="605" y="1244" type="line"/>
      <point x="595" y="1168" type="line"/>
      <point x="426" y="1130" type="line"/>
      <point x="426" y="114" type="line"/>
      <point x="607" y="80" type="line"/>
      <point x="597" y="0" type="line"/>
      <point x="57" y="0" type="line"/>
      <point x="65" y="74" type="line"/>
      <point x="232" y="121" type="line"/>
      <point x="232" y="1126" type="line"/>
    </contour>
  </outline>
</glyph>
<glyph name="M" format="1">
  <advance width="1664"/>
  <unicode hex="004D"/>
  <outline>
    <contour>
      <point x="24" y="0" type="line"/>
      <point x="35" y="74" type="line"/>
      <point x="202" y="121" type="line"/>
      <point x="275" y="1126" type="line"/>
      <point x="92" y="1168" type="line"/>
      <point x="102" y="1244" type="line"/>
      <point x="505" y="1244" type="line"/>
      <point x="583" y="1050" type="line"/>
      <point x="845" y="313" type="line"/>
      <point x="1152" y="1083" type="line"/>
      <point x="1223" y="1244" type="line"/>
      <point x="1618" y="1244" type="line"/>
      <point x="1608" y="1168" type="line"/>
      <point x="1440" y="1130" type="line"/>
      <point x="1492" y="114" type="line"/>
      <point x="1674" y="80" type="line"/>
      <point x="1664" y="0" type="line"/>
      <point x="1128" y="0" type="line"/>
      <point x="1139" y="74" type="line"/>
      <point x="1305" y="121" type="line"/>
      <point x="1249" y="1004" type="line"/>
      <point x="868" y="50" type="line"/>
      <point x="740" y="31" type="line"/>
      <point x="397" y="967" type="line"/>
      <point x="334" y="114" type="line"/>
      <point x="517" y="80" type="line"/>
      <point x="504" y="0" type="line"/>
    </contour>
  </outline>
</glyph>
<glyph name="N" format="1">
  <advance width="1337"/>
  <unicode hex="004E"/>
  <outline>
    <contour>
      <point x="50" y="1168" type="line"/>
      <point x="61" y="1244" type="line"/>
      <point x="411" y="1244" type="line"/>
      <point x="1054" y="274" type="line"/>
      <point x="1054" y="1126" type="line"/>
      <point x="869" y="1168" type="line"/>
      <point x="881" y="1244" type="line"/>
      <point x="1356" y="1244" type="line"/>
      <point x="1343" y="1168" type="line"/>
      <point x="1176" y="1130" type="line"/>
      <point x="1176" y="1" type="line"/>
      <point x="1023" y="-30" type="line"/>
      <point x="360" y="961" type="line"/>
      <point x="360" y="114" type="line"/>
      <point x="543" y="80" type="line"/>
      <point x="532" y="0" type="line"/>
      <point x="57" y="0" type="line"/>
      <point x="65" y="74" type="line"/>
      <point x="232" y="121" type="line"/>
      <point x="232" y="1117" type="line"/>
    </contour>
  </outline>
</glyph>
<glyph name="Q" format="1">
  <advance width="1334"/>
  <unicode hex="0051"/>
  <outline>
    <contour>
      <point x="61" y="608" type="curve" smooth="yes"/>
      <point x="61" y="994"/>
      <point x="325" y="1272"/>
      <point x="721" y="1272" type="curve" smooth="yes"/>
      <point x="1078" y="1272"/>
      <point x="1299" y="980"/>
      <point x="1299" y="629" type="curve" smooth="yes"/>
      <point x="1299" y="335"/>
      <point x="1122" y="68"/>
      <point x="818" y="-6" type="curve"/>
      <point x="877" y="-141"/>
      <point x="963" y="-228"/>
      <point x="1250" y="-275" type="curve"/>
      <point x="1250" y="-299"/>
      <point x="1247" y="-333"/>
      <point x="1241" y="-351" type="curve"/>
      <point x="1179" y="-381"/>
      <point x="1121" y="-385"/>
      <point x="1065" y="-385" type="curve" smooth="yes"/>
      <point x="884" y="-385"/>
      <point x="721" y="-249"/>
      <point x="703" y="-21" type="curve"/>
      <point x="693" y="-24"/>
      <point x="653" y="-27"/>
      <point x="638" y="-27" type="curve" smooth="yes"/>
      <point x="293" y="-27"/>
      <point x="61" y="246"/>
    </contour>
    <contour>
      <point x="263" y="679" type="curve" smooth="yes"/>
      <point x="263" y="439"/>
      <point x="369" y="88"/>
      <point x="749" y="67" type="curve"/>
      <point x="1019" y="134"/>
      <point x="1092" y="336"/>
      <point x="1092" y="563" type="curve" smooth="yes"/>
      <point x="1092" y="857"/>
      <point x="928" y="1168"/>
      <point x="664" y="1168" type="curve" smooth="yes"/>
      <point x="413" y="1168"/>
      <point x="263" y="989"/>
    </contour>
  </outline>
</glyph>
<glyph name="R" format="1">
  <advance width="1213"/>
  <unicode hex="0052"/>
  <outline>
    <contour>
      <point x="50" y="0" type="line"/>
      <point x="61" y="74" type="line"/>
      <point x="228" y="121" type="line"/>
      <point x="228" y="1100" type="line"/>
      <point x="57" y="1130" type="line"/>
      <point x="67" y="1207" type="line"/>
      <point x="214" y="1230"/>
      <point x="375" y="1253"/>
      <point x="523" y="1253" type="curve" smooth="yes"/>
      <point x="820" y="1253"/>
      <point x="1025" y="1176"/>
      <point x="1025" y="943" type="curve" smooth="yes"/>
      <point x="1025" y="814"/>
      <point x="926" y="666"/>
      <point x="738" y="599" type="curve"/>
      <point x="738" y="598" type="line"/>
      <point x="918" y="349" type="line" smooth="yes"/>
      <point x="1035" y="187"/>
      <point x="1087" y="114"/>
      <point x="1211" y="77" type="curve" smooth="yes"/>
      <point x="1244" y="67" type="line"/>
      <point x="1229" y="-1" type="line"/>
      <point x="1186" y="-16"/>
      <point x="1146" y="-21"/>
      <point x="1109" y="-21" type="curve" smooth="yes"/>
      <point x="950" y="-21"/>
      <point x="840" y="98"/>
      <point x="753" y="253" type="curve" smooth="yes"/>
      <point x="594" y="537" type="line"/>
      <point x="420" y="537" type="line"/>
      <point x="420" y="126" type="line"/>
      <point x="608" y="83" type="line"/>
      <point x="598" y="0" type="line"/>
    </contour>
    <contour>
      <point x="420" y="628" type="line"/>
      <point x="618" y="628" type="line"/>
      <point x="717" y="661"/>
      <point x="818" y="745"/>
      <point x="818" y="887" type="curve" smooth="yes"/>
      <point x="818" y="1051"/>
      <point x="717" y="1169"/>
      <point x="540" y="1169" type="curve" smooth="yes"/>
      <point x="470" y="1169"/>
      <point x="420" y="1164"/>
      <point x="420" y="1164" type="curve"/>
    </contour>
  </outline>
</glyph>
<glyph name="U" format="1">
  <advance width="1369"/>
  <unicode hex="0055"/>
  <outline>
    <contour>
      <point x="22" y="1168" type="line"/>
      <point x="35" y="1244" type="line"/>
      <point x="577" y="1244" type="line"/>
      <point x="568" y="1168" type="line"/>
      <point x="399" y="1130" type="line"/>
      <point x="399" y="510" type="line" smooth="yes"/>
      <point x="399" y="225"/>
      <point x="542" y="105"/>
      <point x="747" y="105" type="curve" smooth="yes"/>
      <point x="949" y="105"/>
      <point x="1071" y="221"/>
      <point x="1072" y="482" type="curve" smooth="yes"/>
      <point x="1075" y="1126" type="line"/>
      <point x="892" y="1168" type="line"/>
      <point x="902" y="1244" type="line"/>
      <point x="1380" y="1244" type="line"/>
      <point x="1369" y="1168" type="line"/>
      <point x="1203" y="1130" type="line"/>
      <point x="1198" y="515" type="line" smooth="yes"/>
      <point x="1195" y="155"/>
      <point x="1044" y="-27"/>
      <point x="697" y="-27" type="curve" smooth="yes"/>
      <point x="466" y="-27"/>
      <point x="206" y="48"/>
      <point x="206" y="469" type="curve" smooth="yes"/>
      <point x="206" y="1126" type="line"/>
    </contour>
  </outline>
</glyph>
<glyph name="Y" format="1">
  <advance width="1210"/>
  <unicode hex="0059"/>
  <outline>
    <contour>
      <point x="-21" y="1168" type="line"/>
      <point x="-8" y="1244" type="line"/>
      <point x="500" y="1244" type="line"/>
      <point x="488" y="1168" type="line"/>
      <point x="330" y="1130" type="line"/>
      <point x="607" y="640" type="line"/>
      <point x="871" y="1126" type="line"/>
      <point x="688" y="1168" type="line"/>
      <point x="698" y="1244" type="line"/>
      <point x="1143" y="1244" type="line"/>
      <point x="1133" y="1168" type="line"/>
      <point x="1008" y="1130" type="line"/>
      <point x="663" y="529" type="line"/>
      <point x="663" y="114" type="line"/>
      <point x="826" y="80" type="line"/>
      <point x="816" y="0" type="line"/>
      <point x="310" y="0" type="line"/>
      <point x="320" y="74" type="line"/>
      <point x="470" y="121" type="line"/>
      <point x="470" y="504" type="line"/>
      <point x="117" y="1126" type="line"/>
    </contour>
  </outline>
</glyph>
<glyph name="Z" format="1">
  <advance width="1009"/>
  <unicode hex="005A"/>
  <outline>
    <contour>
      <point x="47" y="104" type="line"/>
      <point x="792" y="1149" type="line"/>
      <point x="255" y="1149" type="line"/>
      <point x="178" y="903" type="line"/>
      <point x="88" y="921" type="line"/>
      <point x="98" y="1244" type="line"/>
      <point x="1026" y="1244" type="line"/>
      <point x="1026" y="1168" type="line"/>
      <point x="262" y="100" type="line"/>
      <point x="832" y="100" type="line"/>
      <point x="955" y="351" type="line"/>
      <point x="1048" y="335" type="line"/>
      <point x="991" y="0" type="line"/>
      <point x="55" y="0" type="line"/>
    </contour>
  </outline>
</glyph>
<glyph name="backslash" format="1">
  <advance width="677"/>
  <unicode hex="005C"/>
  <outline>
    <contour>
      <point x="37" y="1274" type="line"/>
      <point x="171" y="1266" type="line"/>
      <point x="632" y="-376" type="line"/>
      <point x="504" y="-368" type="line"/>
    </contour>
  </outline>
</glyph>
<glyph name="a" format="1">
  <advance width="1077"/>
  <unicode hex="0061"/>
  <outline>
    <contour>
      <point x="37" y="0" type="line"/>
      <point x="46" y="74" type="line"/>
      <point x="165" y="129" type="line"/>
      <point x="489" y="917" type="line"/>
      <point x="640" y="948" type="line"/>
      <point x="934" y="124" type="line"/>
      <point x="1041" y="80" type="line"/>
      <point x="1032" y="0" type="line"/>
      <point x="587" y="0" type="line"/>
      <point x="599" y="74" type="line"/>
      <point x="730" y="121" type="line"/>
      <point x="522" y="730" type="line"/>
      <point x="300" y="124" type="line"/>
      <point x="446" y="80" type="line"/>
      <point x="435" y="0" type="line"/>
    </contour>
    <contour>
      <point x="332" y="310" type="line"/>
      <point x="370" y="412" type="line"/>
      <point x="692" y="412" type="line"/>
      <point x="721" y="310" type="line"/>
    </contour>
  </outline>
</glyph>
<glyph name="b" format="1">
  <advance width="943"/>
  <unicode hex="0062"/>
  <outline>
    <contour>
      <point x="37" y="0" type="line"/>
      <point x="48" y="74" type="line"/>
      <point x="185" y="121" type="line"/>
      <point x="185" y="804" type="line"/>
      <point x="44" y="834" type="line"/>
      <point x="54" y="911" type="line"/>
      <point x="181" y="932"/>
      <point x="331" y="957"/>
      <point x="486" y="957" type="curve" smooth="yes"/>
      <point x="719" y="957"/>
      <point x="815" y="847"/>
      <point x="815" y="727" type="curve" smooth="yes"/>
      <point x="815" y="651"/>
      <point x="773" y="558"/>
      <point x="637" y="516" type="curve"/>
      <point x="637" y="509" type="line"/>
      <point x="816" y="501"/>
      <point x="907" y="425"/>
      <point x="907" y="290" type="curve" smooth="yes"/>
      <point x="907" y="147"/>
      <point x="799" y="0"/>
      <point x="465" y="0" type="curve" smooth="yes"/>
    </contour>
    <contour>
      <point x="377" y="96" type="line"/>
      <point x="507" y="96" type="line" smooth="yes"/>
      <point x="641" y="96"/>
      <point x="711" y="163"/>
      <point x="711" y="277" type="curve" smooth="yes"/>
      <point x="711" y="363"/>
      <point x="645" y="442"/>
      <point x="510" y="442" type="curve" smooth="yes"/>
      <point x="377" y="442" type="line"/>
    </contour>
    <contour>
      <point x="377" y="525" type="line"/>
      <point x="543" y="525" type="line"/>
      <point x="601" y="559"/>
      <point x="635" y="631"/>
      <point x="635" y="709" type="curve" smooth="yes"/>
      <point x="635" y="786"/>
      <point x="591" y="871"/>
      <point x="427" y="871" type="curve" smooth="yes"/>
      <point x="412" y="871"/>
      <point x="394" y="870"/>
      <point x="377" y="868" type="curve"/>
    </contour>
  </outline>
</glyph>
<glyph name="f" format="1">
  <advance width="899"/>
  <unicode hex="0066"/>
  <outline>
    <contour>
      <point x="37" y="854" type="line"/>
      <point x="48" y="930" type="line"/>
      <point x="861" y="930" type="line"/>
      <point x="832" y="658" type="line"/>
      <point x="729" y="672" type="line"/>
      <point x="708" y="838" type="line"/>
      <point x="383" y="838" type="line"/>
      <point x="383" y="470" type="line"/>
      <point x="602" y="470" type="line"/>
      <point x="627" y="554" type="line"/>
      <point x="725" y="568" type="line"/>
      <point x="698" y="276" type="line"/>
      <point x="605" y="262" type="line"/>
      <point x="589" y="378" type="line"/>
      <point x="383" y="378" type="line"/>
      <point x="380" y="122" type="line"/>
      <point x="578" y="83" type="line"/>
      <point x="565" y="0" type="line"/>
      <point x="44" y="0" type="line"/>
      <point x="52" y="74" type="line"/>
      <point x="189" y="121" type="line"/>
      <point x="189" y="812" type="line"/>
    </contour>
  </outline>
</glyph>
<glyph name="h" format="1">
  <advance width="1195"/>
  <unicode hex="0068"/>
  <outline>
    <contour>
      <point x="37" y="854" type="line"/>
      <point x="48" y="930" type="line"/>
      <point x="532" y="930" type="line"/>
      <point x="522" y="854" type="line"/>
      <point x="384" y="816" type="line"/>
      <point x="384" y="508" type="line"/>
      <point x="809" y="508" type="line"/>
      <point x="809" y="812" type="line"/>
      <point x="656" y="854" type="line"/>
      <point x="667" y="930" type="line"/>
      <point x="1153" y="930" type="line"/>
      <point x="1141" y="854" type="line"/>
      <point x="1004" y="816" type="line"/>
      <point x="1004" y="114" type="line"/>
      <point x="1156" y="80" type="line"/>
      <point x="1146" y="0" type="line"/>
      <point x="663" y="0" type="line"/>
      <point x="673" y="74" type="line"/>
      <point x="809" y="121" type="line"/>
      <point x="809" y="405" type="line"/>
      <point x="384" y="405" type="line"/>
      <point x="384" y="114" type="line"/>
      <point x="538" y="80" type="line"/>
      <point x="525" y="0" type="line"/>
      <point x="44" y="0" type="line"/>
      <point x="52" y="74" type="line"/>
      <point x="189" y="121" type="line"/>
      <point x="189" y="812" type="line"/>
    </contour>
  </outline>
</glyph>
<glyph name="j" format="1">
  <advance width="563"/>
  <unicode hex="006A"/>
  <outline>
    <contour>
      <point x="-51" y="-237" type="line"/>
      <point x="104" y="-100"/>
      <point x="185" y="18"/>
      <point x="185" y="167" type="curve" smooth="yes"/>
      <point x="185" y="812" type="line"/>
      <point x="34" y="854" type="line"/>
      <point x="44" y="930" type="line"/>
      <point x="529" y="930" type="line"/>
      <point x="519" y="854" type="line"/>
      <point x="379" y="816" type="line"/>
      <point x="379" y="305" type="line" smooth="yes"/>
      <point x="379" y="-58"/>
      <point x="290" y="-159"/>
      <point x="3" y="-326" type="curve"/>
    </contour>
  </outline>
</glyph>
<glyph name="k" format="1">
  <advance width="1115"/>
  <unicode hex="006B"/>
  <outline>
    <contour>
      <point x="37" y="854" type="line"/>
      <point x="51" y="930" type="line"/>
      <point x="531" y="930" type="line"/>
      <point x="521" y="854" type="line"/>
      <point x="389" y="807" type="line"/>
      <point x="389" y="124" type="line"/>
      <point x="558" y="80" type="line"/>
      <point x="547" y="0" type="line"/>
      <point x="44" y="0" type="line"/>
      <point x="54" y="74" type="line"/>
      <point x="196" y="129" type="line"/>
      <point x="196" y="803" type="line"/>
    </contour>
    <contour>
      <point x="413" y="466" type="line"/>
      <point x="447" y="499"/>
      <point x="496" y="548"/>
      <point x="559" y="616" type="curve" smooth="yes"/>
      <point x="744" y="815" type="line"/>
      <point x="626" y="854" type="line"/>
      <point x="634" y="930" type="line"/>
      <point x="1047" y="930" type="line"/>
      <point x="1035" y="851" type="line"/>
      <point x="895" y="811" type="line"/>
      <point x="597" y="492" type="line"/>
      <point x="766" y="287" type="line" smooth="yes"/>
      <point x="839" y="199"/>
      <point x="934.778" y="110.247"/>
      <point x="1032" y="83" type="curve" smooth="yes"/>
      <point x="1078" y="70" type="line"/>
      <point x="1068" y="1" type="line"/>
      <point x="1022" y="-15"/>
      <point x="977" y="-21"/>
      <point x="937" y="-21" type="curve" smooth="yes"/>
      <point x="801.494" y="-21"/>
      <point x="682" y="69"/>
      <point x="610" y="170" type="curve" smooth="yes"/>
      <point x="414" y="445" type="line"/>
    </contour>
  </outline>
</glyph>
<glyph name="m" format="1">
  <advance width="1449"/>
  <unicode hex="006D"/>
  <outline>
    <contour>
      <point x="35" y="0" type="line"/>
      <point x="46" y="74" type="line"/>
      <point x="183" y="121" type="line"/>
      <point x="246" y="812" type="line"/>
      <point x="93" y="854" type="line"/>
      <point x="103" y="930" type="line"/>
      <point x="460" y="930" type="line"/>
      <point x="544" y="736" type="line"/>
      <point x="725" y="322" type="line"/>
      <point x="919" y="769" type="line"/>
      <point x="993" y="930" type="line"/>
      <point x="1367" y="930" type="line"/>
      <point x="1357" y="854" type="line"/>
      <point x="1219" y="816" type="line"/>
      <point x="1261" y="114" type="line"/>
      <point x="1413" y="80" type="line"/>
      <point x="1403" y="0" type="line"/>
      <point x="917" y="0" type="line"/>
      <point x="928" y="74" type="line"/>
      <point x="1074" y="121" type="line"/>
      <point x="1041" y="719" type="line"/>
      <point x="752" y="60" type="line"/>
      <point x="624" y="41" type="line"/>
      <point x="358" y="663" type="line"/>
      <point x="315" y="114" type="line"/>
      <point x="468" y="80" type="line"/>
      <point x="455" y="0" type="line"/>
    </contour>
  </outline>
</glyph>
<glyph name="n" format="1">
  <advance width="1120"/>
  <unicode hex="006E"/>
  <outline>
    <contour>
      <point x="37" y="854" type="line"/>
      <point x="48" y="930" type="line"/>
      <point x="358" y="930" type="line"/>
      <point x="831" y="275" type="line"/>
      <point x="831" y="812" type="line"/>
      <point x="679" y="854" type="line"/>
      <point x="691" y="930" type="line"/>
      <point x="1133" y="930" type="line"/>
      <point x="1120" y="854" type="line"/>
      <point x="953" y="816" type="line"/>
      <point x="953" y="11" type="line"/>
      <point x="800" y="-20" type="line"/>
      <point x="317" y="647" type="line"/>
      <point x="317" y="114" type="line"/>
      <point x="471" y="80" type="line"/>
      <point x="460" y="0" type="line"/>
      <point x="44" y="0" type="line"/>
      <point x="52" y="74" type="line"/>
      <point x="189" y="121" type="line"/>
      <point x="189" y="803" type="line"/>
    </contour>
  </outline>
</glyph>
<glyph name="o" format="1">
  <advance width="1034"/>
  <unicode hex="006F"/>
  <outline>
    <contour>
      <point x="38" y="458" type="curve" smooth="yes"/>
      <point x="38" y="746"/>
      <point x="229" y="947"/>
      <point x="538" y="947" type="curve" smooth="yes"/>
      <point x="824" y="947"/>
      <point x="995" y="721"/>
      <point x="995" y="458" type="curve" smooth="yes"/>
      <point x="995" y="199"/>
      <point x="813" y="-27"/>
      <point x="488" y="-27" type="curve" smooth="yes"/>
      <point x="218" y="-27"/>
      <point x="38" y="186"/>
    </contour>
    <contour>
      <point x="245" y="515" type="curve" smooth="yes"/>
      <point x="245" y="300"/>
      <point x="326" y="79"/>
      <point x="528" y="79" type="curve" smooth="yes"/>
      <point x="733" y="79"/>
      <point x="781" y="248"/>
      <point x="781" y="412" type="curve" smooth="yes"/>
      <point x="781" y="618"/>
      <point x="700" y="851"/>
      <point x="500" y="851" type="curve" smooth="yes"/>
      <point x="296" y="851"/>
      <point x="245" y="690"/>
    </contour>
  </outline>
</glyph>
<glyph name="q" format="1">
  <advance width="1027"/>
  <unicode hex="0071"/>
  <outline>
    <contour>
      <point x="38" y="455" type="curve" smooth="yes"/>
      <point x="38" y="741"/>
      <point x="237" y="947"/>
      <point x="536" y="947" type="curve" smooth="yes"/>
      <point x="826" y="947"/>
      <point x="988" y="736"/>
      <point x="988" y="483" type="curve" smooth="yes"/>
      <point x="988" y="257"/>
      <point x="857" y="51"/>
      <point x="633" y="-6" type="curve"/>
      <point x="678" y="-106"/>
      <point x="768" y="-210"/>
      <point x="965" y="-205" type="curve"/>
      <point x="965" y="-229"/>
      <point x="962" y="-263"/>
      <point x="956" y="-281" type="curve"/>
      <point x="905" y="-311"/>
      <point x="846" y="-327"/>
      <point x="787" y="-327" type="curve" smooth="yes"/>
      <point x="623" y="-327"/>
      <point x="520" y="-198"/>
      <point x="532" y="-30" type="curve"/>
      <point x="213" y="-41"/>
      <point x="38" y="188"/>
    </contour>
    <contour>
      <point x="240" y="526" type="curve" smooth="yes"/>
      <point x="240" y="294"/>
      <point x="346" y="70"/>
      <point x="564" y="67" type="curve"/>
      <point x="737" y="114"/>
      <point x="784" y="257"/>
      <point x="784" y="418" type="curve" smooth="yes"/>
      <point x="784" y="629"/>
      <point x="668" y="853"/>
      <point x="489" y="853" type="curve" smooth="yes"/>
      <point x="333" y="853"/>
      <point x="240" y="733"/>
    </contour>
  </outline>
</glyph>
<glyph name="s" format="1">
  <advance width="714"/>
  <unicode hex="0073"/>
  <outline>
    <contour>
      <point x="37" y="59" type="curve"/>
      <point x="70" y="309" type="line"/>
      <point x="172" y="295" type="line"/>
      <point x="191" y="144" type="line"/>
      <point x="232" y="101"/>
      <point x="265" y="75"/>
      <point x="367" y="75" type="curve" smooth="yes"/>
      <point x="428" y="75"/>
      <point x="504" y="106"/>
      <point x="504" y="179" type="curve" smooth="yes"/>
      <point x="504" y="371"/>
      <point x="61" y="365"/>
      <point x="61" y="665" type="curve" smooth="yes"/>
      <point x="61" y="846"/>
      <point x="223" y="947"/>
      <point x="390" y="947" type="curve" smooth="yes"/>
      <point x="476" y="947"/>
      <point x="551" y="930"/>
      <point x="614" y="897" type="curve"/>
      <point x="614" y="890"/>
      <point x="592" y="635"/>
      <point x="592" y="635" type="curve"/>
      <point x="493" y="647" type="line"/>
      <point x="478" y="796" type="line"/>
      <point x="459" y="830"/>
      <point x="414" y="863"/>
      <point x="357" y="863" type="curve" smooth="yes"/>
      <point x="270" y="863"/>
      <point x="219" y="823"/>
      <point x="219" y="734" type="curve" smooth="yes"/>
      <point x="219" y="524"/>
      <point x="678" y="518"/>
      <point x="678" y="254" type="curve" smooth="yes"/>
      <point x="678" y="85"/>
      <point x="520" y="-24"/>
      <point x="353" y="-24" type="curve" smooth="yes"/>
      <point x="187" y="-24"/>
      <point x="91" y="7"/>
    </contour>
  </outline>
</glyph>
<glyph name="v" format="1">
  <advance width="1082"/>
  <unicode hex="0076"/>
  <outline>
    <contour>
      <point x="37" y="854" type="line"/>
      <point x="47" y="930" type="line"/>
      <point x="520" y="930" type="line"/>
      <point x="510" y="854" type="line"/>
      <point x="381" y="816" type="line"/>
      <point x="580" y="241" type="line"/>
      <point x="791" y="812" type="line"/>
      <point x="659" y="854" type="line"/>
      <point x="666" y="930" type="line"/>
      <point x="1043" y="930" type="line"/>
      <point x="1036" y="854" type="line"/>
      <point x="932" y="816" type="line"/>
      <point x="616" y="4" type="line"/>
      <point x="464" y="-24" type="line"/>
      <point x="160" y="812" type="line"/>
    </contour>
  </outline>
</glyph>
<glyph name="y" format="1">
  <advance width="939"/>
  <unicode hex="0079"/>
  <outline>
    <contour>
      <point x="12" y="854" type="line"/>
      <point x="25" y="930" type="line"/>
      <point x="483" y="930" type="line"/>
      <point x="471" y="854" type="line"/>
      <point x="353" y="816" type="line"/>
      <point x="529" y="493" type="line"/>
      <point x="697" y="812" type="line"/>
      <point x="574" y="854" type="line"/>
      <point x="584" y="930" type="line"/>
      <point x="939" y="930" type="line"/>
      <point x="929" y="854" type="line"/>
      <point x="834" y="816" type="line"/>
      <point x="586" y="385" type="line"/>
      <point x="586" y="114" type="line"/>
      <point x="737" y="80" type="line"/>
      <point x="727" y="0" type="line"/>
      <point x="243" y="0" type="line"/>
      <point x="253" y="74" type="line"/>
      <point x="393" y="121" type="line"/>
      <point x="393" y="360" type="line"/>
      <point x="140" y="812" type="line"/>
    </contour>
  </outline>
</glyph>
<glyph name="z" format="1">
  <advance width="899"/>
  <unicode hex="007A"/>
  <outline>
    <contour>
      <point x="37" y="104" type="line"/>
      <point x="601" y="835" type="line"/>
      <point x="244" y="835" type="line"/>
      <point x="178" y="639" type="line"/>
      <point x="78" y="657" type="line"/>
      <point x="87" y="930" type="line"/>
      <point x="841" y="930" type="line"/>
      <point x="841" y="854" type="line"/>
      <point x="258" y="100" type="line"/>
      <point x="669" y="100" type="line"/>
      <point x="768" y="301" type="line"/>
      <point x="863" y="285" type="line"/>
      <point x="826" y="0" type="line"/>
      <point x="45" y="0" type="line"/>
    </contour>
  </outline>
</glyph>
<glyph name="exclamdown" format="1">
  <advance width="387"/>
  <unicode hex="00A1"/>
  <outline>
    <contour>
      <point x="70" y="784" type="curve" smooth="yes"/>
      <point x="70" y="854"/>
      <point x="126" y="910"/>
      <point x="196" y="910" type="curve" smooth="yes"/>
      <point x="266" y="910"/>
      <point x="320" y="853"/>
      <point x="320" y="783" type="curve" smooth="yes"/>
      <point x="320" y="716"/>
      <point x="262" y="666"/>
      <point x="196" y="666" type="curve" smooth="yes"/>
      <point x="129" y="666"/>
      <point x="70" y="717"/>
    </contour>
    <contour>
      <point x="97" y="-378" type="curve" smooth="yes"/>
      <point x="97" y="-210"/>
      <point x="124" y="212"/>
      <point x="151" y="534" type="curve"/>
      <point x="151" y="540" type="line"/>
      <point x="240" y="520" type="line"/>
      <point x="240" y="517" type="line"/>
      <point x="264" y="195"/>
      <point x="294" y="-266"/>
      <point x="294" y="-375" type="curve" smooth="yes"/>
      <point x="294" y="-378" type="line"/>
      <point x="286" y="-406"/>
      <point x="198" y="-418"/>
      <point x="162" y="-418" type="curve" smooth="yes"/>
      <point x="135" y="-418"/>
      <point x="97" y="-409"/>
    </contour>
  </outline>
</glyph>
<glyph name="currency" format="1">
  <advance width="763"/>
  <unicode hex="00A4"/>
  <outline>
    <contour>
      <point x="37" y="746" type="line"/>
      <point x="120" y="827" type="line"/>
      <point x="230" y="709" type="line"/>
      <point x="273" y="745"/>
      <point x="335" y="768"/>
      <point x="384" y="768" type="curve" smooth="yes"/>
      <point x="438" y="768"/>
      <point x="501" y="748"/>
      <point x="541" y="718" type="curve"/>
      <point x="652" y="830" type="line"/>
      <point x="725" y="742" type="line"/>
      <point x="611" y="636" type="line"/>
      <point x="632" y="599"/>
      <point x="647" y="538"/>
      <point x="647" y="491" type="curve" smooth="yes"/>
      <point x="647" y="441"/>
      <point x="631" y="379"/>
      <point x="604" y="342" type="curve"/>
      <point x="728" y="223" type="line"/>
      <point x="644" y="143" type="line"/>
      <point x="531" y="264" type="line"/>
      <point x="485" y="236"/>
      <point x="423" y="217"/>
      <point x="376" y="217" type="curve" smooth="yes"/>
      <point x="336" y="217"/>
      <point x="282" y="233"/>
      <point x="242" y="257" type="curve"/>
      <point x="133" y="136" type="line"/>
      <point x="50" y="221" type="line"/>
      <point x="165" y="332" type="line"/>
      <point x="138" y="372"/>
      <point x="120" y="435"/>
      <point x="120" y="488" type="curve" smooth="yes"/>
      <point x="120" y="534"/>
      <point x="136" y="592"/>
      <point x="159" y="628" type="curve"/>
    </contour>
    <contour>
      <point x="225" y="494" type="curve" smooth="yes"/>
      <point x="225" y="386"/>
      <point x="289" y="313"/>
      <point x="381" y="313" type="curve" smooth="yes"/>
      <point x="477" y="313"/>
      <point x="541" y="383"/>
      <point x="541" y="487" type="curve" smooth="yes"/>
      <point x="541" y="598"/>
      <point x="477" y="670"/>
      <point x="380" y="670" type="curve" smooth="yes"/>
      <point x="288" y="670"/>
      <point x="225" y="599"/>
    </contour>
  </outline>
</glyph>
<glyph name="section" format="1">
  <advance width="889"/>
  <unicode hex="00A7"/>
  <outline>
    <contour>
      <point x="55" y="-236" type="curve"/>
      <point x="68" y="31" type="line"/>
      <point x="172" y="16" type="line"/>
      <point x="209" y="-172" type="line"/>
      <point x="245" y="-229"/>
      <point x="322" y="-282"/>
      <point x="415" y="-282" type="curve" smooth="yes"/>
      <point x="520" y="-282"/>
      <point x="653" y="-219"/>
      <point x="653" y="-71" type="curve" smooth="yes"/>
      <point x="653" y="195"/>
      <point x="17" y="191"/>
      <point x="83" y="606" type="curve"/>
      <point x="439" y="406" type="line" smooth="yes"/>
      <point x="611" y="310"/>
      <point x="836" y="230"/>
      <point x="836" y="-4" type="curve" smooth="yes"/>
      <point x="836" y="-234"/>
      <point x="621" y="-383"/>
      <point x="393" y="-383" type="curve" smooth="yes"/>
      <point x="249" y="-383"/>
      <point x="119" y="-315"/>
    </contour>
    <contour>
      <point x="83" y="916" type="curve" smooth="yes"/>
      <point x="83" y="1143"/>
      <point x="273" y="1269"/>
      <point x="470" y="1269" type="curve" smooth="yes"/>
      <point x="578" y="1269"/>
      <point x="674" y="1235"/>
      <point x="753" y="1169" type="curve"/>
      <point x="753" y="1161"/>
      <point x="731" y="887"/>
      <point x="731" y="887" type="curve"/>
      <point x="632" y="899" type="line"/>
      <point x="606" y="1090" type="line"/>
      <point x="588" y="1126"/>
      <point x="518" y="1185"/>
      <point x="438" y="1185" type="curve" smooth="yes"/>
      <point x="338" y="1185"/>
      <point x="254" y="1126"/>
      <point x="254" y="995" type="curve" smooth="yes"/>
      <point x="254" y="698"/>
      <point x="902" y="728"/>
      <point x="835" y="300" type="curve"/>
      <point x="429" y="527" type="line" smooth="yes"/>
      <point x="270" y="616"/>
      <point x="83" y="704"/>
    </contour>
  </outline>
</glyph>
<glyph name="dieresis" format="1">
  <advance width="623"/>
  <unicode hex="00A8"/>
  <outline>
    <contour>
      <point x="92" y="1465" type="curve" smooth="yes"/>
      <point x="92" y="1512"/>
      <point x="137" y="1542"/>
      <point x="177" y="1542" type="curve" smooth="yes"/>
      <point x="221" y="1542"/>
      <point x="263" y="1511"/>
      <point x="263" y="1465" type="curve" smooth="yes"/>
      <point x="263" y="1416"/>
      <point x="221" y="1383"/>
      <point x="177" y="1383" type="curve" smooth="yes"/>
      <point x="134" y="1383"/>
      <point x="92" y="1416"/>
    </contour>
    <contour>
      <point x="360" y="1465" type="curve" smooth="yes"/>
      <point x="360" y="1512"/>
      <point x="405" y="1542"/>
      <point x="445" y="1542" type="curve" smooth="yes"/>
      <point x="489" y="1542"/>
      <point x="532" y="1511"/>
      <point x="532" y="1465" type="curve" smooth="yes"/>
      <point x="532" y="1416"/>
      <point x="489" y="1383"/>
      <point x="445" y="1383" type="curve" smooth="yes"/>
      <point x="402" y="1383"/>
      <point x="360" y="1416"/>
    </contour>
  </outline>
</glyph>
<glyph name="copyright" format="1">
  <advance width="1377"/>
  <unicode hex="00A9"/>
  <outline>
    <contour>
      <point x="344.5" y="643.75" type="curve" smooth="yes"/>
      <point x="344.5" y="896.2"/>
      <point x="521.3" y="1056"/>
      <point x="705.75" y="1056" type="curve" smooth="yes"/>
      <point x="847.7" y="1056"/>
      <point x="910.6" y="993.1"/>
      <point x="910.6" y="925.95" type="curve" smooth="yes"/>
      <point x="910.6" y="875.8"/>
      <point x="873.2" y="841.8"/>
      <point x="802.65" y="836.7" type="curve"/>
      <point x="778.85" y="893.65"/>
      <point x="739.75" y="976.1"/>
      <point x="665.8" y="976.1" type="curve" smooth="yes"/>
      <point x="564.65" y="976.1"/>
      <point x="498.35" y="875.8"/>
      <point x="498.35" y="721.95" type="curve" smooth="yes"/>
      <point x="498.35" y="580"/>
      <point x="574" y="367.5"/>
      <point x="750.8" y="367.5" type="curve" smooth="yes"/>
      <point x="834.95" y="367.5"/>
      <point x="882.55" y="393.85"/>
      <point x="922.5" y="419.35" type="curve"/>
      <point x="943.75" y="370.05" type="line"/>
      <point x="898.7" y="315.65"/>
      <point x="789.9" y="265.5"/>
      <point x="680.25" y="265.5" type="curve" smooth="yes"/>
      <point x="476.25" y="265.5"/>
      <point x="344.5" y="439.75"/>
    </contour>
    <contour>
      <point x="53" y="645" type="curve" smooth="yes"/>
      <point x="53" y="1026"/>
      <point x="346" y="1320"/>
      <point x="684" y="1320" type="curve" smooth="yes"/>
      <point x="1079" y="1320"/>
      <point x="1327" y="1033"/>
      <point x="1327" y="649" type="curve" smooth="yes"/>
      <point x="1327" y="292"/>
      <point x="1041" y="-15"/>
      <point x="675" y="-15" type="curve" smooth="yes"/>
      <point x="309" y="-15"/>
      <point x="53" y="270"/>
    </contour>
    <contour>
      <point x="176" y="657" type="curve" smooth="yes"/>
      <point x="176" y="329"/>
      <point x="387" y="92"/>
      <point x="683" y="92" type="curve" smooth="yes"/>
      <point x="971" y="92"/>
      <point x="1205" y="325"/>
      <point x="1205" y="639" type="curve" smooth="yes"/>
      <point x="1205" y="964"/>
      <point x="1019" y="1217"/>
      <point x="684" y="1217" type="curve" smooth="yes"/>
      <point x="396" y="1217"/>
      <point x="176" y="961"/>
    </contour>
  </outline>
</glyph>
<glyph name="ordfeminine" format="1">
  <advance width="830"/>
  <unicode hex="00AA"/>
  <outline>
    <contour>
      <point x="125" y="668" type="curve" smooth="yes"/>
      <point x="125" y="786"/>
      <point x="212" y="932"/>
      <point x="496" y="932" type="curve"/>
      <point x="496" y="966" type="line" smooth="yes"/>
      <point x="496" y="1074"/>
      <point x="488" y="1170"/>
      <point x="386" y="1170" type="curve" smooth="yes"/>
      <point x="316" y="1170"/>
      <point x="304" y="1114"/>
      <point x="292" y="978" type="curve"/>
      <point x="212" y="970"/>
      <point x="154" y="1014"/>
      <point x="154" y="1100" type="curve" smooth="yes"/>
      <point x="154" y="1187"/>
      <point x="327" y="1254"/>
      <point x="444" y="1254" type="curve" smooth="yes"/>
      <point x="595" y="1254"/>
      <point x="654" y="1177"/>
      <point x="654" y="1008" type="curve" smooth="yes"/>
      <point x="654" y="748" type="line" smooth="yes"/>
      <point x="654" y="674"/>
      <point x="674" y="648"/>
      <point x="749" y="635" type="curve" smooth="yes"/>
      <point x="792" y="628" type="line"/>
      <point x="781" y="566" type="line"/>
      <point x="740" y="529"/>
      <point x="715" y="520"/>
      <point x="665" y="520" type="curve" smooth="yes"/>
      <point x="566" y="520"/>
      <point x="514" y="580"/>
      <point x="514" y="627" type="curve" smooth="yes"/>
      <point x="514" y="639" type="line"/>
      <point x="504" y="639" type="line"/>
      <point x="481" y="597"/>
      <point x="430" y="515"/>
      <point x="291" y="515" type="curve" smooth="yes"/>
      <point x="202" y="515"/>
      <point x="125" y="570"/>
    </contour>
    <contour>
      <point x="293" y="716" type="curve" smooth="yes"/>
      <point x="293" y="676"/>
      <point x="316" y="627"/>
      <point x="379" y="627" type="curve" smooth="yes"/>
      <point x="439" y="627"/>
      <point x="468" y="664"/>
      <point x="496" y="694" type="curve"/>
      <point x="496" y="873" type="line"/>
      <point x="344" y="846"/>
      <point x="293" y="793"/>
    </contour>
  </outline>
</glyph>
<glyph name="guillemotleft" format="1">
  <advance width="643"/>
  <unicode hex="00AB"/>
  <outline>
    <contour>
      <point x="23" y="469" type="line"/>
      <point x="292" y="820" type="line"/>
      <point x="335" y="761" type="line"/>
      <point x="171" y="461" type="line"/>
      <point x="338" y="141" type="line"/>
      <point x="286" y="77" type="line"/>
      <point x="24" y="449" type="line"/>
    </contour>
    <contour>
      <point x="270" y="469" type="line"/>
      <point x="538" y="820" type="line"/>
      <point x="583" y="761" type="line"/>
      <point x="418" y="461" type="line"/>
      <point x="586" y="141" type="line"/>
      <point x="534" y="77" type="line"/>
      <point x="271" y="449" type="line"/>
    </contour>
  </outline>
</glyph>
<glyph name="softhyphen" format="1">
  <advance width="580"/>
  <unicode hex="00AD"/>
  <outline>
    <contour>
      <point x="85" y="406" type="line"/>
      <point x="92" y="521" type="line"/>
      <point x="500" y="581" type="line"/>
      <point x="492" y="465" type="line"/>
    </contour>
  </outline>
</glyph>
<glyph name="registered" format="1">
  <advance width="1257"/>
  <unicode hex="00AE"/>
  <outline>
    <contour>
      <point x="173" y="1022" type="curve" smooth="yes"/>
      <point x="173" y="1344"/>
      <point x="384" y="1522"/>
      <point x="652" y="1522" type="curve" smooth="yes"/>
      <point x="928" y="1522"/>
      <point x="1147" y="1352"/>
      <point x="1147" y="1026" type="curve" smooth="yes"/>
      <point x="1147" y="716"/>
      <point x="924" y="540"/>
      <point x="642" y="540" type="curve" smooth="yes"/>
      <point x="380" y="540"/>
      <point x="173" y="724"/>
    </contour>
    <contour>
      <point x="261" y="1036" type="curve" smooth="yes"/>
      <point x="261" y="776"/>
      <point x="432" y="616"/>
      <point x="650" y="616" type="curve" smooth="yes"/>
      <point x="878" y="616"/>
      <point x="1059" y="784"/>
      <point x="1059" y="1016" type="curve" smooth="yes"/>
      <point x="1059" y="1280"/>
      <point x="878" y="1446"/>
      <point x="652" y="1446" type="curve" smooth="yes"/>
      <point x="430" y="1446"/>
      <point x="261" y="1300"/>
    </contour>
    <contour>
      <point x="373" y="777" type="line"/>
      <point x="380" y="825" type="line"/>
      <point x="460" y="853" type="line"/>
      <point x="460" y="1248" type="line"/>
      <point x="379" y="1266" type="line"/>
      <point x="384" y="1319" type="line"/>
      <point x="450" y="1329"/>
      <point x="562" y="1341"/>
      <point x="629" y="1341" type="curve" smooth="yes"/>
      <point x="782" y="1341"/>
      <point x="874" y="1305"/>
      <point x="874" y="1194" type="curve" smooth="yes"/>
      <point x="874" y="1124"/>
      <point x="816" y="1051"/>
      <point x="749" y="1028" type="curve"/>
      <point x="748" y="1026" type="line"/>
      <point x="826" y="935" type="line" smooth="yes"/>
      <point x="876" y="877"/>
      <point x="895" y="862"/>
      <point x="945" y="839" type="curve" smooth="yes"/>
      <point x="962" y="832" type="line"/>
      <point x="951" y="777" type="line"/>
      <point x="932" y="771"/>
      <point x="901" y="766"/>
      <point x="869" y="766" type="curve" smooth="yes"/>
      <point x="778" y="766"/>
      <point x="737" y="823"/>
      <point x="687" y="918" type="curve" smooth="yes"/>
      <point x="643" y="1001" type="line"/>
      <point x="587" y="1001" type="line"/>
      <point x="587" y="857" type="line"/>
      <point x="661" y="830" type="line"/>
      <point x="656" y="777" type="line"/>
    </contour>
    <contour>
      <point x="587" y="1068" type="line"/>
      <point x="666" y="1068" type="line"/>
      <point x="706" y="1085"/>
      <point x="737" y="1117"/>
      <point x="737" y="1170" type="curve" smooth="yes"/>
      <point x="737" y="1233"/>
      <point x="694" y="1272"/>
      <point x="621" y="1272" type="curve" smooth="yes"/>
      <point x="603" y="1272"/>
      <point x="590" y="1270"/>
      <point x="587" y="1270" type="curve"/>
    </contour>
  </outline>
</glyph>
<glyph name="three.superior" format="1">
  <advance width="635"/>
  <unicode hex="00B3"/>
  <outline>
    <contour>
      <point x="21" y="563" type="curve"/>
      <point x="51" y="762" type="line"/>
      <point x="126" y="754" type="line"/>
      <point x="134" y="619" type="line"/>
      <point x="152" y="598"/>
      <point x="190" y="579"/>
      <point x="233" y="579" type="curve" smooth="yes"/>
      <point x="328" y="579"/>
      <point x="384" y="635"/>
      <point x="384" y="719" type="curve" smooth="yes"/>
      <point x="384" y="790"/>
      <point x="301" y="849"/>
      <point x="180" y="849" type="curve"/>
      <point x="164" y="908" type="line"/>
      <point x="212" y="923"/>
      <point x="348" y="971"/>
      <point x="348" y="1070" type="curve" smooth="yes"/>
      <point x="348" y="1127"/>
      <point x="313" y="1189"/>
      <point x="241" y="1189" type="curve" smooth="yes"/>
      <point x="210" y="1189"/>
      <point x="179" y="1186"/>
      <point x="158" y="1167" type="curve"/>
      <point x="134" y="1010" type="line"/>
      <point x="58" y="1016" type="line"/>
      <point x="46" y="1187" type="line"/>
      <point x="77" y="1231"/>
      <point x="192" y="1279"/>
      <point x="295" y="1279" type="curve" smooth="yes"/>
      <point x="430" y="1279"/>
      <point x="535" y="1223"/>
      <point x="535" y="1117" type="curve" smooth="yes"/>
      <point x="535" y="1013"/>
      <point x="453" y="955"/>
      <point x="356" y="927" type="curve"/>
      <point x="356" y="920" type="line"/>
      <point x="501" y="905"/>
      <point x="574" y="839"/>
      <point x="574" y="736" type="curve" smooth="yes"/>
      <point x="574" y="600"/>
      <point x="417" y="495"/>
      <point x="229" y="495" type="curve" smooth="yes"/>
      <point x="134" y="495"/>
      <point x="41" y="521"/>
    </contour>
  </outline>
</glyph>
<glyph name="acute" format="1">
  <advance width="520"/>
  <unicode hex="00B4"/>
  <outline>
    <contour>
      <point x="172" y="1380" type="line"/>
      <point x="295" y="1705" type="line"/>
      <point x="406" y="1666" type="line"/>
      <point x="223" y="1348" type="line"/>
    </contour>
  </outline>
</glyph>
<glyph name="micro" format="1">
  <advance width="1008"/>
  <unicode hex="00B5"/>
  <outline>
    <contour>
      <point x="28" y="790" type="line"/>
      <point x="40" y="870" type="line"/>
      <point x="309" y="892" type="line"/>
      <point x="334" y="866" type="line"/>
      <point x="334" y="314" type="line" smooth="yes"/>
      <point x="334" y="163"/>
      <point x="397" y="105"/>
      <point x="487" y="105" type="curve" smooth="yes"/>
      <point x="577" y="105"/>
      <point x="625" y="148"/>
      <point x="675" y="188" type="curve"/>
      <point x="675" y="731" type="line"/>
      <point x="513" y="773" type="line"/>
      <point x="523" y="863" type="line"/>
      <point x="818" y="892" type="line"/>
      <point x="839" y="866" type="line"/>
      <point x="839" y="213" type="line" smooth="yes"/>
      <point x="839" y="108"/>
      <point x="882" y="102"/>
      <point x="948" y="87" type="curve" smooth="yes"/>
      <point x="993" y="77" type="line"/>
      <point x="985" y="-6" type="line"/>
      <point x="923" y="-21"/>
      <point x="891" y="-24"/>
      <point x="832" y="-24" type="curve" smooth="yes"/>
      <point x="732" y="-24"/>
      <point x="686" y="38"/>
      <point x="686" y="121" type="curve" smooth="yes"/>
      <point x="686" y="129" type="line"/>
      <point x="675" y="129" type="line"/>
      <point x="585" y="29"/>
      <point x="500" y="-24"/>
      <point x="387" y="-24" type="curve" smooth="yes"/>
      <point x="325" y="-24"/>
      <point x="277" y="-3"/>
      <point x="246" y="37" type="curve"/>
      <point x="239" y="37" type="line"/>
      <point x="242" y="19"/>
      <point x="249" y="-22"/>
      <point x="253" y="-86" type="curve" smooth="yes"/>
      <point x="271" y="-388" type="line"/>
      <point x="138" y="-362" type="line"/>
      <point x="139" y="-335"/>
      <point x="165" y="202"/>
      <point x="165" y="494" type="curve" smooth="yes"/>
      <point x="165" y="736" type="line"/>
    </contour>
  </outline>
</glyph>
<glyph name="paragraph" format="1">
  <advance width="1289"/>
  <unicode hex="00B6"/>
  <outline>
    <contour>
      <point x="164" y="593" type="curve" smooth="yes"/>
      <point x="164" y="816"/>
      <point x="366" y="930"/>
      <point x="601" y="930" type="curve" smooth="yes"/>
      <point x="841" y="930" type="line"/>
      <point x="841" y="0" type="line"/>
      <point x="467" y="0" type="line"/>
      <point x="474" y="74" type="line"/>
      <point x="683" y="121" type="line"/>
      <point x="683" y="838" type="line"/>
      <point x="643" y="839"/>
      <point x="611" y="840"/>
      <point x="601" y="840" type="curve" smooth="yes"/>
      <point x="493" y="840"/>
      <point x="365" y="801"/>
      <point x="365" y="629" type="curve" smooth="yes"/>
      <point x="365" y="489"/>
      <point x="439" y="395"/>
      <point x="605" y="389" type="curve"/>
      <point x="587" y="291" type="line"/>
      <point x="339" y="291"/>
      <point x="164" y="381"/>
    </contour>
    <contour>
      <point x="920" y="0" type="line"/>
      <point x="920" y="930" type="line"/>
      <point x="1211" y="930" type="line"/>
      <point x="1201" y="853" type="line"/>
      <point x="1061" y="815" type="line"/>
      <point x="1061" y="114" type="line"/>
      <point x="1212" y="80" type="line"/>
      <point x="1202" y="0" type="line"/>
    </contour>
  </outline>
</glyph>
<glyph name="onehalf" format="1">
  <advance width="1736"/>
  <unicode hex="00BD"/>
  <outline>
    <contour>
      <point x="-52" y="531" type="line"/>
      <point x="-48" y="605" type="line"/>
      <point x="105" y="630" type="line"/>
      <point x="105" y="1122" type="line"/>
      <point x="-40" y="1122" type="line"/>
      <point x="-36" y="1199" type="line"/>
      <point x="266" y="1245" type="line"/>
      <point x="285" y="1245" type="line"/>
      <point x="285" y="627" type="line"/>
      <point x="437" y="614" type="line"/>
      <point x="431" y="531" type="line"/>
    </contour>
    <contour>
      <point x="139" y="-10" type="line"/>
      <point x="546" y="588" type="line"/>
      <point x="937" y="1210" type="line"/>
      <point x="1113" y="1207" type="line"/>
      <point x="1111" y="1178" type="line"/>
      <point x="710" y="591" type="line"/>
      <point x="339" y="-32" type="line"/>
    </contour>
    <contour>
      <point x="784" y="2" type="line"/>
      <point x="792" y="109" type="line"/>
      <point x="947" y="232" type="line" smooth="yes"/>
      <point x="1051" y="317"/>
      <point x="1130" y="401"/>
      <point x="1130" y="476" type="curve" smooth="yes"/>
      <point x="1130" y="548"/>
      <point x="1115" y="624"/>
      <point x="1021" y="624" type="curve" smooth="yes"/>
      <point x="972" y="624"/>
      <point x="932" y="598"/>
      <point x="917" y="566" type="curve"/>
      <point x="895" y="437" type="line"/>
      <point x="827" y="442" type="line"/>
      <point x="812" y="612" type="line"/>
      <point x="853" y="689"/>
      <point x="984" y="728"/>
      <point x="1085" y="728" type="curve" smooth="yes"/>
      <point x="1238" y="728"/>
      <point x="1326" y="660"/>
      <point x="1326" y="542" type="curve" smooth="yes"/>
      <point x="1326" y="389"/>
      <point x="1178" y="274"/>
      <point x="1015" y="167" type="curve" smooth="yes"/>
      <point x="948" y="123" type="line"/>
      <point x="1218" y="123" type="line"/>
      <point x="1297" y="276" type="line"/>
      <point x="1354" y="255" type="line"/>
      <point x="1335" y="2" type="line"/>
    </contour>
  </outline>
</glyph>
<glyph name="questiondown" format="1">
  <advance width="636"/>
  <unicode hex="00BF"/>
  <outline>
    <contour>
      <point x="53" y="40" type="curve" smooth="yes"/>
      <point x="53" y="277"/>
      <point x="341" y="243"/>
      <point x="341" y="391" type="curve" smooth="yes"/>
      <point x="341" y="431"/>
      <point x="334" y="468"/>
      <point x="319" y="517" type="curve"/>
      <point x="393" y="534" type="line"/>
      <point x="420" y="494"/>
      <point x="470" y="394"/>
      <point x="470" y="314" type="curve" smooth="yes"/>
      <point x="470" y="90"/>
      <point x="164" y="165"/>
      <point x="164" y="-40" type="curve" smooth="yes"/>
      <point x="164" y="-132"/>
      <point x="269" y="-213"/>
      <point x="328" y="-213" type="curve" smooth="yes"/>
      <point x="404" y="-213"/>
      <point x="476" y="-188"/>
      <point x="519" y="-142" type="curve"/>
      <point x="552" y="-155"/>
      <point x="593" y="-199"/>
      <point x="593" y="-253" type="curve" smooth="yes"/>
      <point x="593" y="-306"/>
      <point x="553" y="-388"/>
      <point x="396" y="-388" type="curve" smooth="yes"/>
      <point x="241" y="-388"/>
      <point x="53" y="-214"/>
    </contour>
    <contour>
      <point x="233" y="810" type="curve" smooth="yes"/>
      <point x="233" y="880"/>
      <point x="289" y="936"/>
      <point x="359" y="936" type="curve" smooth="yes"/>
      <point x="429" y="936"/>
      <point x="482" y="877"/>
      <point x="482" y="807" type="curve" smooth="yes"/>
      <point x="482" y="740"/>
      <point x="425" y="690"/>
      <point x="359" y="690" type="curve" smooth="yes"/>
      <point x="292" y="690"/>
      <point x="233" y="743"/>
    </contour>
  </outline>
</glyph>
<glyph name="Acircumflex" format="1">
  <advance width="1234"/>
  <unicode hex="00C2"/>
  <outline>
    <contour>
      <point x="-37" y="0" type="line"/>
      <point x="-28" y="74" type="line"/>
      <point x="121" y="129" type="line"/>
      <point x="559" y="1237" type="line"/>
      <point x="710" y="1268" type="line"/>
      <point x="1100" y="124" type="line"/>
      <point x="1237" y="80" type="line"/>
      <point x="1228" y="0" type="line"/>
      <point x="713" y="0" type="line"/>
      <point x="725" y="74" type="line"/>
      <point x="896" y="129" type="line"/>
      <point x="787" y="432" type="line"/>
      <point x="368" y="432" type="line"/>
      <point x="256" y="124" type="line"/>
      <point x="442" y="80" type="line"/>
      <point x="431" y="0" type="line"/>
    </contour>
    <contour>
      <point x="406" y="534" type="line"/>
      <point x="758" y="534" type="line"/>
      <point x="592" y="1034" type="line"/>
    </contour>
    <contour>
      <point x="443" y="1392" type="line"/>
      <point x="611" y="1572" type="line"/>
      <point x="666" y="1585" type="line"/>
      <point x="844" y="1400" type="line"/>
      <point x="794" y="1364" type="line"/>
      <point x="632" y="1472" type="line"/>
      <point x="621" y="1472" type="line"/>
      <point x="480" y="1361" type="line"/>
    </contour>
  </outline>
</glyph>
<glyph name="Atilde" format="1">
  <advance width="1234"/>
  <unicode hex="00C3"/>
  <outline>
    <contour>
      <point x="-37" y="0" type="line"/>
      <point x="-28" y="74" type="line"/>
      <point x="121" y="129" type="line"/>
      <point x="559" y="1237" type="line"/>
      <point x="710" y="1268" type="line"/>
      <point x="1100" y="124" type="line"/>
      <point x="1237" y="80" type="line"/>
      <point x="1228" y="0" type="line"/>
      <point x="713" y="0" type="line"/>
      <point x="725" y="74" type="line"/>
      <point x="896" y="129" type="line"/>
      <point x="787" y="432" type="line"/>
      <point x="368" y="432" type="line"/>
      <point x="256" y="124" type="line"/>
      <point x="442" y="80" type="line"/>
      <point x="431" y="0" type="line"/>
    </contour>
    <contour>
      <point x="406" y="534" type="line"/>
      <point x="758" y="534" type="line"/>
      <point x="592" y="1034" type="line"/>
    </contour>
    <contour>
      <point x="406" y="1383" type="line"/>
      <point x="406" y="1383"/>
      <point x="440" y="1526"/>
      <point x="529" y="1526" type="curve" smooth="yes"/>
      <point x="533" y="1526"/>
      <point x="539" y="1527"/>
      <point x="543" y="1526" type="curve" smooth="yes"/>
      <point x="764" y="1496" type="line"/>
      <point x="768" y="1496" type="line" smooth="yes"/>
      <point x="793" y="1496"/>
      <point x="825" y="1536"/>
      <point x="825" y="1536" type="curve"/>
      <point x="872" y="1535" type="line"/>
      <point x="872" y="1535"/>
      <point x="835" y="1391"/>
      <point x="743" y="1391" type="curve" smooth="yes"/>
      <point x="739" y="1391"/>
      <point x="734" y="1391"/>
      <point x="730" y="1392" type="curve" smooth="yes"/>
      <point x="507" y="1423" type="line"/>
      <point x="504" y="1423" type="line" smooth="yes"/>
      <point x="476" y="1423"/>
      <point x="445" y="1376"/>
      <point x="445" y="1376" type="curve"/>
    </contour>
  </outline>
</glyph>
<glyph name="Adieresis" format="1">
  <advance width="1234"/>
  <unicode hex="00C4"/>
  <outline>
    <contour>
      <point x="-37" y="0" type="line"/>
      <point x="-28" y="74" type="line"/>
      <point x="121" y="129" type="line"/>
      <point x="559" y="1237" type="line"/>
      <point x="710" y="1268" type="line"/>
      <point x="1100" y="124" type="line"/>
      <point x="1237" y="80" type="line"/>
      <point x="1228" y="0" type="line"/>
      <point x="713" y="0" type="line"/>
      <point x="725" y="74" type="line"/>
      <point x="896" y="129" type="line"/>
      <point x="787" y="432" type="line"/>
      <point x="368" y="432" type="line"/>
      <point x="256" y="124" type="line"/>
      <point x="442" y="80" type="line"/>
      <point x="431" y="0" type="line"/>
    </contour>
    <contour>
      <point x="406" y="534" type="line"/>
      <point x="758" y="534" type="line"/>
      <point x="592" y="1034" type="line"/>
    </contour>
    <contour>
      <point x="423" y="1453" type="curve" smooth="yes"/>
      <point x="423" y="1500"/>
      <point x="466" y="1530"/>
      <point x="506" y="1530" type="curve" smooth="yes"/>
      <point x="550" y="1530"/>
      <point x="592" y="1499"/>
      <point x="592" y="1453" type="curve" smooth="yes"/>
      <point x="592" y="1404"/>
      <point x="550" y="1373"/>
      <point x="506" y="1373" type="curve" smooth="yes"/>
      <point x="463" y="1373"/>
      <point x="423" y="1404"/>
    </contour>
    <contour>
      <point x="690" y="1453" type="curve" smooth="yes"/>
      <point x="690" y="1500"/>
      <point x="733" y="1530"/>
      <point x="773" y="1530" type="curve" smooth="yes"/>
      <point x="817" y="1530"/>
      <point x="861" y="1499"/>
      <point x="861" y="1453" type="curve" smooth="yes"/>
      <point x="861" y="1404"/>
      <point x="817" y="1373"/>
      <point x="773" y="1373" type="curve" smooth="yes"/>
      <point x="730" y="1373"/>
      <point x="690" y="1404"/>
    </contour>
  </outline>
</glyph>
<glyph name="AE" format="1">
  <advance width="1684"/>
  <unicode hex="00C6"/>
  <outline>
    <contour>
      <point x="-40" y="1" type="line"/>
      <point x="-31" y="76" type="line"/>
      <point x="105" y="131" type="line"/>
      <point x="738" y="1126" type="line"/>
      <point x="524" y="1168" type="line"/>
      <point x="534" y="1244" type="line"/>
      <point x="1596" y="1244" type="line"/>
      <point x="1564" y="927" type="line"/>
      <point x="1478" y="940" type="line"/>
      <point x="1436" y="1152" type="line"/>
      <point x="998" y="1152" type="line"/>
      <point x="998" y="679" type="line"/>
      <point x="1257" y="679" type="line"/>
      <point x="1299" y="802" type="line"/>
      <point x="1394" y="810" type="line"/>
      <point x="1360" y="424" type="line"/>
      <point x="1275" y="409" type="line"/>
      <point x="1241" y="586" type="line"/>
      <point x="998" y="586" type="line"/>
      <point x="998" y="96" type="line"/>
      <point x="1462" y="96" type="line"/>
      <point x="1563" y="329" type="line"/>
      <point x="1643" y="313" type="line"/>
      <point x="1613" y="0" type="line"/>
      <point x="642" y="0" type="line"/>
      <point x="650" y="74" type="line"/>
      <point x="817" y="121" type="line"/>
      <point x="817" y="472" type="line"/>
      <point x="458" y="472" type="line"/>
      <point x="240" y="126" type="line"/>
      <point x="428" y="83" type="line"/>
      <point x="415" y="1" type="line"/>
    </contour>
    <contour>
      <point x="510" y="568" type="line"/>
      <point x="817" y="568" type="line"/>
      <point x="817" y="1058" type="line"/>
    </contour>
  </outline>
</glyph>
<glyph name="Ecircumflex" format="1">
  <advance width="1142"/>
  <unicode hex="00CA"/>
  <outline>
    <contour>
      <point x="75" y="1168" type="line"/>
      <point x="86" y="1244" type="line"/>
      <point x="1081" y="1244" type="line"/>
      <point x="1050" y="924" type="line"/>
      <point x="963" y="937" type="line"/>
      <point x="922" y="1152" type="line"/>
      <point x="451" y="1152" type="line"/>
      <point x="451" y="676" type="line"/>
      <point x="741" y="676" type="line"/>
      <point x="783" y="796" type="line"/>
      <point x="878" y="810" type="line"/>
      <point x="844" y="421" type="line"/>
      <point x="759" y="408" type="line"/>
      <point x="725" y="583" type="line"/>
      <point x="451" y="583" type="line"/>
      <point x="451" y="96" type="line"/>
      <point x="946" y="96" type="line"/>
      <point x="1044" y="326" type="line"/>
      <point x="1127" y="313" type="line"/>
      <point x="1097" y="0" type="line"/>
      <point x="82" y="0" type="line"/>
      <point x="90" y="74" type="line"/>
      <point x="257" y="121" type="line"/>
      <point x="257" y="1126" type="line"/>
    </contour>
    <contour>
      <point x="406" y="1387" type="line"/>
      <point x="574" y="1566" type="line"/>
      <point x="629" y="1581" type="line"/>
      <point x="807" y="1395" type="line"/>
      <point x="758" y="1358" type="line"/>
      <point x="595" y="1468" type="line"/>
      <point x="584" y="1468" type="line"/>
      <point x="445" y="1357" type="line"/>
    </contour>
  </outline>
</glyph>
<glyph name="Edieresis" format="1">
  <advance width="1142"/>
  <unicode hex="00CB"/>
  <outline>
    <contour>
      <point x="50" y="1168" type="line"/>
      <point x="61" y="1244" type="line"/>
      <point x="1056" y="1244" type="line"/>
      <point x="1025" y="924" type="line"/>
      <point x="938" y="937" type="line"/>
      <point x="897" y="1152" type="line"/>
      <point x="426" y="1152" type="line"/>
      <point x="426" y="676" type="line"/>
      <point x="716" y="676" type="line"/>
      <point x="758" y="796" type="line"/>
      <point x="853" y="810" type="line"/>
      <point x="819" y="421" type="line"/>
      <point x="734" y="408" type="line"/>
      <point x="700" y="583" type="line"/>
      <point x="426" y="583" type="line"/>
      <point x="426" y="96" type="line"/>
      <point x="921" y="96" type="line"/>
      <point x="1019" y="326" type="line"/>
      <point x="1102" y="313" type="line"/>
      <point x="1072" y="0" type="line"/>
      <point x="57" y="0" type="line"/>
      <point x="65" y="74" type="line"/>
      <point x="232" y="121" type="line"/>
      <point x="232" y="1126" type="line"/>
    </contour>
    <contour>
      <point x="380" y="1453" type="curve" smooth="yes"/>
      <point x="380" y="1500"/>
      <point x="423" y="1530"/>
      <point x="463" y="1530" type="curve" smooth="yes"/>
      <point x="507" y="1530"/>
      <point x="549" y="1499"/>
      <point x="549" y="1453" type="curve" smooth="yes"/>
      <point x="549" y="1404"/>
      <point x="507" y="1373"/>
      <point x="463" y="1373" type="curve" smooth="yes"/>
      <point x="420" y="1373"/>
      <point x="380" y="1404"/>
    </contour>
    <contour>
      <point x="647" y="1453" type="curve" smooth="yes"/>
      <point x="647" y="1500"/>
      <point x="690" y="1530"/>
      <point x="730" y="1530" type="curve" smooth="yes"/>
      <point x="774" y="1530"/>
      <point x="818" y="1499"/>
      <point x="818" y="1453" type="curve" smooth="yes"/>
      <point x="818" y="1404"/>
      <point x="774" y="1373"/>
      <point x="730" y="1373" type="curve" smooth="yes"/>
      <point x="687" y="1373"/>
      <point x="647" y="1404"/>
    </contour>
  </outline>
</glyph>
<glyph name="Icircumflex" format="1">
  <advance width="655"/>
  <unicode hex="00CE"/>
  <outline>
    <contour>
      <point x="50" y="1168" type="line"/>
      <point x="61" y="1244" type="line"/>
      <point x="605" y="1244" type="line"/>
      <point x="595" y="1168" type="line"/>
      <point x="426" y="1130" type="line"/>
      <point x="426" y="114" type="line"/>
      <point x="607" y="80" type="line"/>
      <point x="597" y="0" type="line"/>
      <point x="57" y="0" type="line"/>
      <point x="65" y="74" type="line"/>
      <point x="232" y="121" type="line"/>
      <point x="232" y="1126" type="line"/>
    </contour>
    <contour>
      <point x="132" y="1392" type="line"/>
      <point x="299" y="1572" type="line"/>
      <point x="354" y="1585" type="line"/>
      <point x="532" y="1400" type="line"/>
      <point x="483" y="1364" type="line"/>
      <point x="319" y="1472" type="line"/>
      <point x="309" y="1472" type="line"/>
      <point x="169" y="1361" type="line"/>
    </contour>
  </outline>
</glyph>
<glyph name="Eth" format="1">
  <advance width="1374"/>
  <unicode hex="00D0"/>
  <outline>
    <contour>
      <point x="47" y="0" type="line"/>
      <point x="61" y="74" type="line"/>
      <point x="233" y="129" type="line"/>
      <point x="233" y="569" type="line"/>
      <point x="53" y="555" type="line"/>
      <point x="64" y="647" type="line"/>
      <point x="233" y="660" type="line"/>
      <point x="233" y="1104" type="line"/>
      <point x="61" y="1134" type="line"/>
      <point x="70" y="1211" type="line"/>
      <point x="267" y="1242"/>
      <point x="438" y="1260"/>
      <point x="583" y="1260" type="curve" smooth="yes"/>
      <point x="1145" y="1260"/>
      <point x="1317" y="966"/>
      <point x="1317" y="658" type="curve" smooth="yes"/>
      <point x="1317" y="332"/>
      <point x="1054" y="0"/>
      <point x="560" y="0" type="curve" smooth="yes"/>
    </contour>
    <contour>
      <point x="424" y="104" type="line"/>
      <point x="636" y="104" type="line" smooth="yes"/>
      <point x="965" y="104"/>
      <point x="1103" y="342"/>
      <point x="1103" y="598" type="curve" smooth="yes"/>
      <point x="1103" y="905"/>
      <point x="918" y="1157"/>
      <point x="546" y="1157" type="curve" smooth="yes"/>
      <point x="506" y="1157"/>
      <point x="464" y="1155"/>
      <point x="424" y="1151" type="curve"/>
      <point x="424" y="672" type="line"/>
      <point x="682" y="693" type="line"/>
      <point x="670" y="602" type="line"/>
      <point x="424" y="581" type="line"/>
    </contour>
  </outline>
</glyph>
<glyph name="Ntilde" format="1">
  <advance width="2048"/>
  <unicode hex="00D1"/>
  <outline>
    <contour>
      <point x="50" y="1168" type="line"/>
      <point x="61" y="1244" type="line"/>
      <point x="412" y="1244" type="line"/>
      <point x="1054" y="271" type="line"/>
      <point x="1054" y="1126" type="line"/>
      <point x="869" y="1168" type="line"/>
      <point x="881" y="1244" type="line"/>
      <point x="1356" y="1244" type="line"/>
      <point x="1343" y="1168" type="line"/>
      <point x="1176" y="1130" type="line"/>
      <point x="1176" y="1" type="line"/>
      <point x="1023" y="-30" type="line"/>
      <point x="360" y="961" type="line"/>
      <point x="360" y="114" type="line"/>
      <point x="543" y="80" type="line"/>
      <point x="532" y="0" type="line"/>
      <point x="57" y="0" type="line"/>
      <point x="65" y="74" type="line"/>
      <point x="232" y="121" type="line"/>
      <point x="232" y="1117" type="line"/>
    </contour>
    <contour>
      <point x="445" y="1383" type="line"/>
      <point x="445" y="1383"/>
      <point x="477" y="1526"/>
      <point x="566" y="1526" type="curve" smooth="yes"/>
      <point x="570" y="1526"/>
      <point x="576" y="1527"/>
      <point x="580" y="1526" type="curve" smooth="yes"/>
      <point x="802" y="1496" type="line"/>
      <point x="807" y="1496" type="line" smooth="yes"/>
      <point x="832" y="1496"/>
      <point x="862" y="1536"/>
      <point x="862" y="1536" type="curve"/>
      <point x="910" y="1535" type="line"/>
      <point x="910" y="1535"/>
      <point x="873" y="1391"/>
      <point x="781" y="1391" type="curve" smooth="yes"/>
      <point x="777" y="1391"/>
      <point x="772" y="1391"/>
      <point x="768" y="1392" type="curve" smooth="yes"/>
      <point x="546" y="1423" type="line"/>
      <point x="543" y="1423" type="line" smooth="yes"/>
      <point x="515" y="1423"/>
      <point x="483" y="1376"/>
      <point x="483" y="1376" type="curve"/>
    </contour>
  </outline>
</glyph>
<glyph name="Ograve" format="1">
  <advance width="1342"/>
  <unicode hex="00D2"/>
  <outline>
    <contour>
      <point x="61" y="619" type="curve" smooth="yes"/>
      <point x="61" y="1004"/>
      <point x="308" y="1272"/>
      <point x="706" y="1272" type="curve" smooth="yes"/>
      <point x="1068" y="1272"/>
      <point x="1284" y="970"/>
      <point x="1284" y="619" type="curve" smooth="yes"/>
      <point x="1284" y="274"/>
      <point x="1051" y="-27"/>
      <point x="636" y="-27" type="curve" smooth="yes"/>
      <point x="291" y="-27"/>
      <point x="61" y="257"/>
    </contour>
    <contour>
      <point x="283" y="676" type="curve" smooth="yes"/>
      <point x="283" y="382"/>
      <point x="398" y="79"/>
      <point x="686" y="79" type="curve" smooth="yes"/>
      <point x="990" y="79"/>
      <point x="1062" y="330"/>
      <point x="1062" y="573" type="curve" smooth="yes"/>
      <point x="1062" y="856"/>
      <point x="945" y="1176"/>
      <point x="658" y="1176" type="curve" smooth="yes"/>
      <point x="358" y="1176"/>
      <point x="283" y="937"/>
    </contour>
    <contour>
      <point x="527" y="1664" type="line"/>
      <point x="642" y="1702" type="line"/>
      <point x="774" y="1368" type="line"/>
      <point x="717" y="1334" type="line"/>
    </contour>
  </outline>
</glyph>
<glyph name="Oacute" format="1">
  <advance width="1342"/>
  <unicode hex="00D3"/>
  <outline>
    <contour>
      <point x="73" y="619" type="curve" smooth="yes"/>
      <point x="73" y="1004"/>
      <point x="320" y="1272"/>
      <point x="718" y="1272" type="curve" smooth="yes"/>
      <point x="1080" y="1272"/>
      <point x="1296" y="970"/>
      <point x="1296" y="619" type="curve" smooth="yes"/>
      <point x="1296" y="274"/>
      <point x="1064" y="-27"/>
      <point x="649" y="-27" type="curve" smooth="yes"/>
      <point x="304" y="-27"/>
      <point x="73" y="257"/>
    </contour>
    <contour>
      <point x="295" y="676" type="curve" smooth="yes"/>
      <point x="295" y="382"/>
      <point x="410" y="79"/>
      <point x="698" y="79" type="curve" smooth="yes"/>
      <point x="1002" y="79"/>
      <point x="1073" y="330"/>
      <point x="1073" y="573" type="curve" smooth="yes"/>
      <point x="1073" y="856"/>
      <point x="957" y="1176"/>
      <point x="670" y="1176" type="curve" smooth="yes"/>
      <point x="370" y="1176"/>
      <point x="295" y="937"/>
    </contour>
    <contour>
      <point x="574" y="1380" type="line"/>
      <point x="696" y="1705" type="line"/>
      <point x="808" y="1666" type="line"/>
      <point x="624" y="1348" type="line"/>
    </contour>
  </outline>
</glyph>
<glyph name="Odieresis" format="1">
  <advance width="1342"/>
  <unicode hex="00D6"/>
  <outline>
    <contour>
      <point x="61" y="619" type="curve" smooth="yes"/>
      <point x="61" y="1004"/>
      <point x="308" y="1272"/>
      <point x="706" y="1272" type="curve" smooth="yes"/>
      <point x="1068" y="1272"/>
      <point x="1284" y="970"/>
      <point x="1284" y="619" type="curve" smooth="yes"/>
      <point x="1284" y="274"/>
      <point x="1051" y="-27"/>
      <point x="636" y="-27" type="curve" smooth="yes"/>
      <point x="291" y="-27"/>
      <point x="61" y="257"/>
    </contour>
    <contour>
      <point x="283" y="676" type="curve" smooth="yes"/>
      <point x="283" y="382"/>
      <point x="398" y="79"/>
      <point x="686" y="79" type="curve" smooth="yes"/>
      <point x="990" y="79"/>
      <point x="1062" y="330"/>
      <point x="1062" y="573" type="curve" smooth="yes"/>
      <point x="1062" y="856"/>
      <point x="945" y="1176"/>
      <point x="658" y="1176" type="curve" smooth="yes"/>
      <point x="358" y="1176"/>
      <point x="283" y="937"/>
    </contour>
    <contour>
      <point x="463" y="1453" type="curve" smooth="yes"/>
      <point x="463" y="1500"/>
      <point x="507" y="1530"/>
      <point x="547" y="1530" type="curve" smooth="yes"/>
      <point x="591" y="1530"/>
      <point x="632" y="1499"/>
      <point x="632" y="1453" type="curve" smooth="yes"/>
      <point x="632" y="1404"/>
      <point x="591" y="1373"/>
      <point x="547" y="1373" type="curve" smooth="yes"/>
      <point x="504" y="1373"/>
      <point x="463" y="1404"/>
    </contour>
    <contour>
      <point x="730" y="1453" type="curve" smooth="yes"/>
      <point x="730" y="1500"/>
      <point x="774" y="1530"/>
      <point x="814" y="1530" type="curve" smooth="yes"/>
      <point x="858" y="1530"/>
      <point x="902" y="1499"/>
      <point x="902" y="1453" type="curve" smooth="yes"/>
      <point x="902" y="1404"/>
      <point x="858" y="1373"/>
      <point x="814" y="1373" type="curve" smooth="yes"/>
      <point x="771" y="1373"/>
      <point x="730" y="1404"/>
    </contour>
  </outline>
</glyph>
<glyph name="Oslash" format="1">
  <advance width="1342"/>
  <unicode hex="00D8"/>
  <outline>
    <contour>
      <point x="73" y="619" type="curve" smooth="yes"/>
      <point x="73" y="1004"/>
      <point x="320" y="1272"/>
      <point x="718" y="1272" type="curve" smooth="yes"/>
      <point x="1080" y="1272"/>
      <point x="1296" y="970"/>
      <point x="1296" y="619" type="curve" smooth="yes"/>
      <point x="1296" y="274"/>
      <point x="1064" y="-27"/>
      <point x="649" y="-27" type="curve" smooth="yes"/>
      <point x="304" y="-27"/>
      <point x="73" y="257"/>
    </contour>
    <contour>
      <point x="228" y="-111" type="line"/>
      <point x="359" y="133" type="line"/>
      <point x="399" y="157" type="line"/>
      <point x="925" y="1139" type="line"/>
      <point x="917" y="1178" type="line"/>
      <point x="984" y="1304" type="line"/>
      <point x="1136" y="1312" type="line"/>
      <point x="1039" y="1134" type="line"/>
      <point x="988" y="1090" type="line"/>
      <point x="445" y="80" type="line"/>
      <point x="458" y="52" type="line"/>
      <point x="375" y="-102" type="line"/>
    </contour>
    <contour>
      <point x="295" y="676" type="curve" smooth="yes"/>
      <point x="295" y="382"/>
      <point x="410" y="79"/>
      <point x="698" y="79" type="curve" smooth="yes"/>
      <point x="1002" y="79"/>
      <point x="1073" y="330"/>
      <point x="1073" y="573" type="curve" smooth="yes"/>
      <point x="1073" y="856"/>
      <point x="957" y="1176"/>
      <point x="670" y="1176" type="curve" smooth="yes"/>
      <point x="370" y="1176"/>
      <point x="295" y="937"/>
    </contour>
  </outline>
</glyph>
<glyph name="Ugrave" format="1">
  <advance width="2048"/>
  <unicode hex="00D9"/>
  <outline>
    <contour>
      <point x="37" y="1168" type="line"/>
      <point x="50" y="1244" type="line"/>
      <point x="592" y="1244" type="line"/>
      <point x="583" y="1168" type="line"/>
      <point x="414" y="1130" type="line"/>
      <point x="414" y="510" type="line" smooth="yes"/>
      <point x="414" y="225"/>
      <point x="557" y="105"/>
      <point x="762" y="105" type="curve" smooth="yes"/>
      <point x="964" y="105"/>
      <point x="1086" y="221"/>
      <point x="1087" y="482" type="curve" smooth="yes"/>
      <point x="1090" y="1126" type="line"/>
      <point x="907" y="1168" type="line"/>
      <point x="917" y="1244" type="line"/>
      <point x="1395" y="1244" type="line"/>
      <point x="1384" y="1168" type="line"/>
      <point x="1218" y="1130" type="line"/>
      <point x="1213" y="515" type="line" smooth="yes"/>
      <point x="1210" y="155"/>
      <point x="1059" y="-27"/>
      <point x="712" y="-27" type="curve" smooth="yes"/>
      <point x="481" y="-27"/>
      <point x="221" y="48"/>
      <point x="221" y="469" type="curve" smooth="yes"/>
      <point x="221" y="1126" type="line"/>
    </contour>
    <contour>
      <point x="475" y="1659" type="line"/>
      <point x="590" y="1697" type="line"/>
      <point x="722" y="1364" type="line"/>
      <point x="666" y="1329" type="line"/>
    </contour>
  </outline>
</glyph>
<glyph name="Uacute" format="1">
  <advance width="1401"/>
  <unicode hex="00DA"/>
  <outline>
    <contour>
      <point x="37" y="1168" type="line"/>
      <point x="50" y="1244" type="line"/>
      <point x="592" y="1244" type="line"/>
      <point x="583" y="1168" type="line"/>
      <point x="414" y="1130" type="line"/>
      <point x="414" y="510" type="line" smooth="yes"/>
      <point x="414" y="225"/>
      <point x="557" y="105"/>
      <point x="762" y="105" type="curve" smooth="yes"/>
      <point x="964" y="105"/>
      <point x="1086" y="221"/>
      <point x="1087" y="482" type="curve" smooth="yes"/>
      <point x="1090" y="1126" type="line"/>
      <point x="907" y="1168" type="line"/>
      <point x="917" y="1244" type="line"/>
      <point x="1395" y="1244" type="line"/>
      <point x="1384" y="1168" type="line"/>
      <point x="1218" y="1130" type="line"/>
      <point x="1213" y="515" type="line" smooth="yes"/>
      <point x="1210" y="155"/>
      <point x="1059" y="-27"/>
      <point x="712" y="-27" type="curve" smooth="yes"/>
      <point x="481" y="-27"/>
      <point x="221" y="48"/>
      <point x="221" y="469" type="curve" smooth="yes"/>
      <point x="221" y="1126" type="line"/>
    </contour>
    <contour>
      <point x="633" y="1380" type="line"/>
      <point x="756" y="1705" type="line"/>
      <point x="867" y="1666" type="line"/>
      <point x="684" y="1348" type="line"/>
    </contour>
    <contour>
      <point x="633" y="1380" type="line"/>
      <point x="756" y="1705" type="line"/>
      <point x="867" y="1666" type="line"/>
      <point x="684" y="1348" type="line"/>
    </contour>
  </outline>
</glyph>
<glyph name="Ucircumflex" format="1">
  <advance width="1401"/>
  <unicode hex="00DB"/>
  <outline>
    <contour>
      <point x="22" y="1168" type="line"/>
      <point x="35" y="1244" type="line"/>
      <point x="577" y="1244" type="line"/>
      <point x="568" y="1168" type="line"/>
      <point x="399" y="1130" type="line"/>
      <point x="399" y="510" type="line" smooth="yes"/>
      <point x="399" y="225"/>
      <point x="542" y="105"/>
      <point x="747" y="105" type="curve" smooth="yes"/>
      <point x="949" y="105"/>
      <point x="1071" y="221"/>
      <point x="1072" y="482" type="curve" smooth="yes"/>
      <point x="1075" y="1126" type="line"/>
      <point x="892" y="1168" type="line"/>
      <point x="902" y="1244" type="line"/>
      <point x="1380" y="1244" type="line"/>
      <point x="1369" y="1168" type="line"/>
      <point x="1203" y="1130" type="line"/>
      <point x="1198" y="515" type="line" smooth="yes"/>
      <point x="1195" y="155"/>
      <point x="1044" y="-27"/>
      <point x="697" y="-27" type="curve" smooth="yes"/>
      <point x="466" y="-27"/>
      <point x="206" y="48"/>
      <point x="206" y="469" type="curve" smooth="yes"/>
      <point x="206" y="1126" type="line"/>
    </contour>
    <contour>
      <point x="537" y="1392" type="line"/>
      <point x="704" y="1572" type="line"/>
      <point x="759" y="1585" type="line"/>
      <point x="937" y="1400" type="line"/>
      <point x="887" y="1364" type="line"/>
      <point x="724" y="1472" type="line"/>
      <point x="713" y="1472" type="line"/>
      <point x="574" y="1361" type="line"/>
    </contour>
  </outline>
</glyph>
<glyph name="Udieresis" format="1">
  <advance width="1401"/>
  <unicode hex="00DC"/>
  <outline>
    <contour>
      <point x="22" y="1168" type="line"/>
      <point x="35" y="1244" type="line"/>
      <point x="577" y="1244" type="line"/>
      <point x="568" y="1168" type="line"/>
      <point x="399" y="1130" type="line"/>
      <point x="399" y="510" type="line" smooth="yes"/>
      <point x="399" y="225"/>
      <point x="542" y="105"/>
      <point x="747" y="105" type="curve" smooth="yes"/>
      <point x="949" y="105"/>
      <point x="1071" y="221"/>
      <point x="1072" y="482" type="curve" smooth="yes"/>
      <point x="1075" y="1126" type="line"/>
      <point x="892" y="1168" type="line"/>
      <point x="902" y="1244" type="line"/>
      <point x="1380" y="1244" type="line"/>
      <point x="1369" y="1168" type="line"/>
      <point x="1203" y="1130" type="line"/>
      <point x="1198" y="515" type="line" smooth="yes"/>
      <point x="1195" y="155"/>
      <point x="1044" y="-27"/>
      <point x="697" y="-27" type="curve" smooth="yes"/>
      <point x="466" y="-27"/>
      <point x="206" y="48"/>
      <point x="206" y="469" type="curve" smooth="yes"/>
      <point x="206" y="1126" type="line"/>
    </contour>
    <contour>
      <point x="515" y="1453" type="curve" smooth="yes"/>
      <point x="515" y="1500"/>
      <point x="558" y="1530"/>
      <point x="598" y="1530" type="curve" smooth="yes"/>
      <point x="642" y="1530"/>
      <point x="684" y="1499"/>
      <point x="684" y="1453" type="curve" smooth="yes"/>
      <point x="684" y="1404"/>
      <point x="642" y="1373"/>
      <point x="598" y="1373" type="curve" smooth="yes"/>
      <point x="555" y="1373"/>
      <point x="515" y="1404"/>
    </contour>
    <contour>
      <point x="782" y="1453" type="curve" smooth="yes"/>
      <point x="782" y="1500"/>
      <point x="826" y="1530"/>
      <point x="866" y="1530" type="curve" smooth="yes"/>
      <point x="910" y="1530"/>
      <point x="953" y="1499"/>
      <point x="953" y="1453" type="curve" smooth="yes"/>
      <point x="953" y="1404"/>
      <point x="910" y="1373"/>
      <point x="866" y="1373" type="curve" smooth="yes"/>
      <point x="823" y="1373"/>
      <point x="782" y="1404"/>
    </contour>
  </outline>
</glyph>
<glyph name="Yacute" format="1">
  <advance width="1123"/>
  <unicode hex="00DD"/>
  <outline>
    <contour>
      <point x="-73" y="1168" type="line"/>
      <point x="-60" y="1244" type="line"/>
      <point x="448" y="1244" type="line"/>
      <point x="436" y="1168" type="line"/>
      <point x="278" y="1130" type="line"/>
      <point x="555" y="640" type="line"/>
      <point x="819" y="1126" type="line"/>
      <point x="636" y="1168" type="line"/>
      <point x="646" y="1244" type="line"/>
      <point x="1091" y="1244" type="line"/>
      <point x="1081" y="1168" type="line"/>
      <point x="956" y="1130" type="line"/>
      <point x="611" y="529" type="line"/>
      <point x="611" y="114" type="line"/>
      <point x="774" y="80" type="line"/>
      <point x="764" y="0" type="line"/>
      <point x="258" y="0" type="line"/>
      <point x="268" y="74" type="line"/>
      <point x="418" y="121" type="line"/>
      <point x="418" y="504" type="line"/>
      <point x="65" y="1126" type="line"/>
    </contour>
    <contour>
      <point x="455" y="1380" type="line"/>
      <point x="578" y="1705" type="line"/>
      <point x="689" y="1666" type="line"/>
      <point x="506" y="1348" type="line"/>
    </contour>
  </outline>
</glyph>
<glyph name="germandbls" format="1">
  <advance width="1102"/>
  <unicode hex="00DF"/>
  <outline>
    <contour>
      <point x="10" y="0" type="line"/>
      <point x="18" y="73" type="line"/>
      <point x="152" y="110" type="line"/>
      <point x="152" y="548" type="line" smooth="yes"/>
      <point x="152" y="830"/>
      <point x="351" y="949"/>
      <point x="653" y="949" type="curve" smooth="yes"/>
      <point x="805" y="949"/>
      <point x="1046" y="914"/>
      <point x="1046" y="769" type="curve" smooth="yes"/>
      <point x="1046" y="693"/>
      <point x="1003" y="660"/>
      <point x="925" y="634" type="curve"/>
      <point x="899" y="732"/>
      <point x="853" y="843"/>
      <point x="746" y="843" type="curve" smooth="yes"/>
      <point x="685" y="843"/>
      <point x="625" y="809"/>
      <point x="625" y="724" type="curve" smooth="yes"/>
      <point x="625" y="514"/>
      <point x="1084" y="495"/>
      <point x="1084" y="244" type="curve" smooth="yes"/>
      <point x="1084" y="81"/>
      <point x="926" y="-24"/>
      <point x="759" y="-24" type="curve" smooth="yes"/>
      <point x="593" y="-24"/>
      <point x="497" y="7"/>
      <point x="443" y="59" type="curve"/>
      <point x="476" y="309" type="line"/>
      <point x="578" y="295" type="line"/>
      <point x="597" y="144" type="line"/>
      <point x="638" y="101"/>
      <point x="671" y="75"/>
      <point x="773" y="75" type="curve" smooth="yes"/>
      <point x="834" y="75"/>
      <point x="910" y="106"/>
      <point x="910" y="179" type="curve" smooth="yes"/>
      <point x="910" y="347"/>
      <point x="467" y="371"/>
      <point x="467" y="641" type="curve" smooth="yes"/>
      <point x="467" y="767"/>
      <point x="550" y="842"/>
      <point x="635" y="867" type="curve"/>
      <point x="637" y="870" type="line"/>
      <point x="433.366" y="883.576"/>
      <point x="341" y="798.989"/>
      <point x="341" y="571" type="curve" smooth="yes"/>
      <point x="341" y="0" type="line"/>
    </contour>
  </outline>
</glyph>
<glyph name="aacute" format="1">
  <advance width="1077"/>
  <unicode hex="00E1"/>
  <outline>
    <contour>
      <point x="37" y="0" type="line"/>
      <point x="46" y="74" type="line"/>
      <point x="165" y="129" type="line"/>
      <point x="489" y="917" type="line"/>
      <point x="640" y="948" type="line"/>
      <point x="934" y="124" type="line"/>
      <point x="1041" y="80" type="line"/>
      <point x="1032" y="0" type="line"/>
      <point x="587" y="0" type="line"/>
      <point x="599" y="74" type="line"/>
      <point x="730" y="121" type="line"/>
      <point x="522" y="730" type="line"/>
      <point x="300" y="124" type="line"/>
      <point x="446" y="80" type="line"/>
      <point x="435" y="0" type="line"/>
    </contour>
    <contour>
      <point x="332" y="310" type="line"/>
      <point x="370" y="412" type="line"/>
      <point x="692" y="412" type="line"/>
      <point x="721" y="310" type="line"/>
    </contour>
    <contour>
      <point x="514" y="1052.7" type="line"/>
      <point x="637" y="1377.7" type="line"/>
      <point x="748" y="1338.7" type="line"/>
      <point x="565" y="1020.7" type="line"/>
    </contour>
  </outline>
</glyph>
<glyph name="acircumflex" format="1">
  <advance width="1077"/>
  <unicode hex="00E2"/>
  <outline>
    <contour>
      <point x="37" y="0" type="line"/>
      <point x="46" y="74" type="line"/>
      <point x="165" y="129" type="line"/>
      <point x="489" y="917" type="line"/>
      <point x="640" y="948" type="line"/>
      <point x="934" y="124" type="line"/>
      <point x="1041" y="80" type="line"/>
      <point x="1032" y="0" type="line"/>
      <point x="587" y="0" type="line"/>
      <point x="599" y="74" type="line"/>
      <point x="730" y="121" type="line"/>
      <point x="522" y="730" type="line"/>
      <point x="300" y="124" type="line"/>
      <point x="446" y="80" type="line"/>
      <point x="435" y="0" type="line"/>
    </contour>
    <contour>
      <point x="332" y="310" type="line"/>
      <point x="370" y="412" type="line"/>
      <point x="692" y="412" type="line"/>
      <point x="721" y="310" type="line"/>
    </contour>
    <contour>
      <point x="368" y="1058" type="line"/>
      <point x="536" y="1237" type="line"/>
      <point x="591" y="1252" type="line"/>
      <point x="769" y="1066" type="line"/>
      <point x="720" y="1029" type="line"/>
      <point x="557" y="1139" type="line"/>
      <point x="546" y="1139" type="line"/>
      <point x="407" y="1028" type="line"/>
    </contour>
  </outline>
</glyph>
<glyph name="aring" format="1">
  <advance width="1077"/>
  <unicode hex="00E5"/>
  <outline>
    <contour>
      <point x="37" y="0" type="line"/>
      <point x="46" y="74" type="line"/>
      <point x="165" y="129" type="line"/>
      <point x="489" y="917" type="line"/>
      <point x="640" y="948" type="line"/>
      <point x="934" y="124" type="line"/>
      <point x="1041" y="80" type="line"/>
      <point x="1032" y="0" type="line"/>
      <point x="587" y="0" type="line"/>
      <point x="599" y="74" type="line"/>
      <point x="730" y="121" type="line"/>
      <point x="522" y="730" type="line"/>
      <point x="300" y="124" type="line"/>
      <point x="446" y="80" type="line"/>
      <point x="435" y="0" type="line"/>
    </contour>
    <contour>
      <point x="332" y="310" type="line"/>
      <point x="370" y="412" type="line"/>
      <point x="692" y="412" type="line"/>
      <point x="721" y="310" type="line"/>
    </contour>
    <contour>
      <point x="403" y="1173" type="curve" smooth="yes"/>
      <point x="403" y="1265"/>
      <point x="477" y="1345"/>
      <point x="570" y="1345" type="curve" smooth="yes"/>
      <point x="666" y="1345"/>
      <point x="726" y="1275"/>
      <point x="726" y="1182" type="curve" smooth="yes"/>
      <point x="726" y="1092"/>
      <point x="659" y="1007"/>
      <point x="557" y="1007" type="curve" smooth="yes"/>
      <point x="465" y="1007"/>
      <point x="403" y="1071"/>
    </contour>
    <contour>
      <point x="474" y="1184" type="curve" smooth="yes"/>
      <point x="474" y="1123"/>
      <point x="505" y="1056"/>
      <point x="569" y="1056" type="curve" smooth="yes"/>
      <point x="623" y="1056"/>
      <point x="655" y="1097"/>
      <point x="655" y="1170" type="curve" smooth="yes"/>
      <point x="655" y="1232"/>
      <point x="621" y="1296"/>
      <point x="559" y="1296" type="curve" smooth="yes"/>
      <point x="500" y="1296"/>
      <point x="474" y="1240"/>
    </contour>
  </outline>
</glyph>
<glyph name="ae" format="1">
  <advance width="1452"/>
  <unicode hex="00E6"/>
  <outline>
    <contour>
      <point x="52" y="1" type="line"/>
      <point x="61" y="76" type="line"/>
      <point x="197" y="131" type="line"/>
      <point x="654" y="812" type="line"/>
      <point x="450" y="851" type="line"/>
      <point x="460" y="927" type="line"/>
      <point x="1373" y="927" type="line"/>
      <point x="1352" y="654" type="line"/>
      <point x="1253" y="667" type="line"/>
      <point x="1222" y="835" type="line"/>
      <point x="921" y="835" type="line"/>
      <point x="921" y="503" type="line"/>
      <point x="1098" y="503" type="line"/>
      <point x="1120" y="583" type="line"/>
      <point x="1218" y="597" type="line"/>
      <point x="1184" y="298" type="line"/>
      <point x="1093" y="285" type="line"/>
      <point x="1082" y="410" type="line"/>
      <point x="921" y="410" type="line"/>
      <point x="921" y="96" type="line"/>
      <point x="1256" y="96" type="line"/>
      <point x="1323" y="276" type="line"/>
      <point x="1417" y="263" type="line"/>
      <point x="1397" y="0" type="line"/>
      <point x="588" y="0" type="line"/>
      <point x="596" y="74" type="line"/>
      <point x="733" y="121" type="line"/>
      <point x="733" y="327" type="line"/>
      <point x="460" y="327" type="line"/>
      <point x="332" y="126" type="line"/>
      <point x="480" y="83" type="line"/>
      <point x="467" y="1" type="line"/>
    </contour>
    <contour>
      <point x="522" y="423" type="line"/>
      <point x="733" y="423" type="line"/>
      <point x="733" y="754" type="line"/>
    </contour>
  </outline>
</glyph>
<glyph name="ccedilla" format="1">
  <advance width="879"/>
  <unicode hex="00E7"/>
  <outline>
    <contour>
      <point x="39" y="439" type="curve" smooth="yes"/>
      <point x="39" y="659"/>
      <point x="180" y="947"/>
      <point x="523" y="947" type="curve" smooth="yes"/>
      <point x="626" y="947"/>
      <point x="730" y="929"/>
      <point x="805" y="880" type="curve"/>
      <point x="784" y="602" type="line"/>
      <point x="686" y="615" type="line"/>
      <point x="664" y="775" type="line"/>
      <point x="640" y="814"/>
      <point x="599" y="852"/>
      <point x="486" y="852" type="curve" smooth="yes"/>
      <point x="332" y="852"/>
      <point x="233" y="719"/>
      <point x="233" y="498" type="curve" smooth="yes"/>
      <point x="233" y="242"/>
      <point x="393" y="108"/>
      <point x="539" y="108" type="curve" smooth="yes"/>
      <point x="676" y="108"/>
      <point x="743" y="147"/>
      <point x="809" y="191" type="curve"/>
      <point x="844" y="115" type="line"/>
      <point x="780" y="51"/>
      <point x="673" y="-24"/>
      <point x="472" y="-24" type="curve" smooth="yes"/>
      <point x="247" y="-24"/>
      <point x="39" y="138"/>
    </contour>
    <contour>
      <point x="390" y="-334.934" type="line"/>
      <point x="447" y="-315.934"/>
      <point x="476" y="-281.934"/>
      <point x="476" y="-251.934" type="curve" smooth="yes"/>
      <point x="476" y="-217.934"/>
      <point x="438" y="-175.934"/>
      <point x="402" y="-141.934" type="curve"/>
      <point x="500" y="-0.933594" type="line"/>
      <point x="574" y="-0.933594" type="line"/>
      <point x="521" y="-79.9336" type="line"/>
      <point x="558" y="-112.934"/>
      <point x="610" y="-163.934"/>
      <point x="610" y="-230.934" type="curve" smooth="yes"/>
      <point x="610" y="-309.934"/>
      <point x="525" y="-358.934"/>
      <point x="409" y="-392.934" type="curve"/>
    </contour>
  </outline>
</glyph>
<glyph name="egrave" format="1">
  <advance width="802"/>
  <unicode hex="00E8"/>
  <outline>
    <contour>
      <point x="29" y="851" type="line"/>
      <point x="40" y="927" type="line"/>
      <point x="837" y="927" type="line"/>
      <point x="816" y="654" type="line"/>
      <point x="717" y="667" type="line"/>
      <point x="686" y="835" type="line"/>
      <point x="375" y="835" type="line"/>
      <point x="375" y="503" type="line"/>
      <point x="552" y="503" type="line"/>
      <point x="574" y="583" type="line"/>
      <point x="672" y="597" type="line"/>
      <point x="638" y="298" type="line"/>
      <point x="547" y="285" type="line"/>
      <point x="536" y="410" type="line"/>
      <point x="375" y="410" type="line"/>
      <point x="375" y="96" type="line"/>
      <point x="720" y="96" type="line"/>
      <point x="787" y="276" type="line"/>
      <point x="881" y="263" type="line"/>
      <point x="861" y="0" type="line"/>
      <point x="36" y="0" type="line"/>
      <point x="44" y="74" type="line"/>
      <point x="181" y="121" type="line"/>
      <point x="181" y="809" type="line"/>
    </contour>
    <contour>
      <point x="275" y="1341" type="line"/>
      <point x="390" y="1379" type="line"/>
      <point x="522" y="1046" type="line"/>
      <point x="466" y="1011" type="line"/>
    </contour>
  </outline>
</glyph>
<glyph name="edieresis" format="1">
  <advance width="925"/>
  <unicode hex="00EB"/>
  <outline>
    <contour>
      <point x="37" y="851" type="line"/>
      <point x="48" y="927" type="line"/>
      <point x="845" y="927" type="line"/>
      <point x="824" y="654" type="line"/>
      <point x="725" y="667" type="line"/>
      <point x="694" y="835" type="line"/>
      <point x="383" y="835" type="line"/>
      <point x="383" y="503" type="line"/>
      <point x="560" y="503" type="line"/>
      <point x="582" y="583" type="line"/>
      <point x="680" y="597" type="line"/>
      <point x="646" y="298" type="line"/>
      <point x="555" y="285" type="line"/>
      <point x="544" y="410" type="line"/>
      <point x="383" y="410" type="line"/>
      <point x="383" y="96" type="line"/>
      <point x="728" y="96" type="line"/>
      <point x="795" y="276" type="line"/>
      <point x="889" y="263" type="line"/>
      <point x="869" y="0" type="line"/>
      <point x="44" y="0" type="line"/>
      <point x="52" y="74" type="line"/>
      <point x="189" y="121" type="line"/>
      <point x="189" y="809" type="line"/>
    </contour>
    <contour>
      <point x="256" y="1106" type="curve" smooth="yes"/>
      <point x="256" y="1153"/>
      <point x="301" y="1183"/>
      <point x="341" y="1183" type="curve" smooth="yes"/>
      <point x="385" y="1183"/>
      <point x="427" y="1152"/>
      <point x="427" y="1106" type="curve" smooth="yes"/>
      <point x="427" y="1057"/>
      <point x="385" y="1024"/>
      <point x="341" y="1024" type="curve" smooth="yes"/>
      <point x="298" y="1024"/>
      <point x="256" y="1057"/>
    </contour>
    <contour>
      <point x="524" y="1106" type="curve" smooth="yes"/>
      <point x="524" y="1153"/>
      <point x="569" y="1183"/>
      <point x="609" y="1183" type="curve" smooth="yes"/>
      <point x="653" y="1183"/>
      <point x="696" y="1152"/>
      <point x="696" y="1106" type="curve" smooth="yes"/>
      <point x="696" y="1057"/>
      <point x="653" y="1024"/>
      <point x="609" y="1024" type="curve" smooth="yes"/>
      <point x="566" y="1024"/>
      <point x="524" y="1057"/>
    </contour>
  </outline>
</glyph>
<glyph name="iacute" format="1">
  <advance width="574"/>
  <unicode hex="00ED"/>
  <outline>
    <contour>
      <point x="37" y="854" type="line"/>
      <point x="48" y="930" type="line"/>
      <point x="129" y="930"/>
      <point x="379" y="930"/>
      <point x="532" y="930" type="curve"/>
      <point x="522" y="854" type="line"/>
      <point x="383" y="816" type="line"/>
      <point x="383" y="114" type="line"/>
      <point x="534" y="80" type="line"/>
      <point x="524" y="0" type="line"/>
      <point x="44" y="0" type="line"/>
      <point x="52" y="74" type="line"/>
      <point x="189" y="121" type="line"/>
      <point x="189" y="812" type="line"/>
    </contour>
    <contour>
      <point x="207" y="1055.1" type="line"/>
      <point x="330" y="1380.1" type="line"/>
      <point x="441" y="1341.1" type="line"/>
      <point x="258" y="1023.1" type="line"/>
    </contour>
  </outline>
</glyph>
<glyph name="idieresis" format="1">
  <advance width="574"/>
  <unicode hex="00EF"/>
  <outline>
    <contour>
      <point x="37" y="854" type="line"/>
      <point x="48" y="930" type="line"/>
      <point x="129" y="930"/>
      <point x="379" y="930"/>
      <point x="532" y="930" type="curve"/>
      <point x="522" y="854" type="line"/>
      <point x="383" y="816" type="line"/>
      <point x="383" y="114" type="line"/>
      <point x="534" y="80" type="line"/>
      <point x="524" y="0" type="line"/>
      <point x="44" y="0" type="line"/>
      <point x="52" y="74" type="line"/>
      <point x="189" y="121" type="line"/>
      <point x="189" y="812" type="line"/>
    </contour>
    <contour>
      <point x="77" y="1109" type="curve" smooth="yes"/>
      <point x="77" y="1156"/>
      <point x="122" y="1186"/>
      <point x="162" y="1186" type="curve" smooth="yes"/>
      <point x="206" y="1186"/>
      <point x="248" y="1155"/>
      <point x="248" y="1109" type="curve" smooth="yes"/>
      <point x="248" y="1060"/>
      <point x="206" y="1027"/>
      <point x="162" y="1027" type="curve" smooth="yes"/>
      <point x="119" y="1027"/>
      <point x="77" y="1060"/>
    </contour>
    <contour>
      <point x="345" y="1109" type="curve" smooth="yes"/>
      <point x="345" y="1156"/>
      <point x="390" y="1186"/>
      <point x="430" y="1186" type="curve" smooth="yes"/>
      <point x="474" y="1186"/>
      <point x="517" y="1155"/>
      <point x="517" y="1109" type="curve" smooth="yes"/>
      <point x="517" y="1060"/>
      <point x="474" y="1027"/>
      <point x="430" y="1027" type="curve" smooth="yes"/>
      <point x="387" y="1027"/>
      <point x="345" y="1060"/>
    </contour>
  </outline>
</glyph>
<glyph name="ograve" format="1">
  <advance width="1034"/>
  <unicode hex="00F2"/>
  <outline>
    <contour>
      <point x="38" y="458" type="curve" smooth="yes"/>
      <point x="38" y="746"/>
      <point x="229" y="947"/>
      <point x="538" y="947" type="curve" smooth="yes"/>
      <point x="824" y="947"/>
      <point x="995" y="721"/>
      <point x="995" y="458" type="curve" smooth="yes"/>
      <point x="995" y="199"/>
      <point x="813" y="-27"/>
      <point x="488" y="-27" type="curve" smooth="yes"/>
      <point x="218" y="-27"/>
      <point x="38" y="186"/>
    </contour>
    <contour>
      <point x="245" y="515" type="curve" smooth="yes"/>
      <point x="245" y="300"/>
      <point x="326" y="79"/>
      <point x="528" y="79" type="curve" smooth="yes"/>
      <point x="733" y="79"/>
      <point x="781" y="248"/>
      <point x="781" y="412" type="curve" smooth="yes"/>
      <point x="781" y="618"/>
      <point x="700" y="851"/>
      <point x="500" y="851" type="curve" smooth="yes"/>
      <point x="296" y="851"/>
      <point x="245" y="690"/>
    </contour>
    <contour>
      <point x="325.059" y="1346.1" type="line"/>
      <point x="440.059" y="1384.1" type="line"/>
      <point x="572.059" y="1051.1" type="line"/>
      <point x="516.059" y="1016.1" type="line"/>
    </contour>
  </outline>
</glyph>
<glyph name="odieresis" format="1">
  <advance width="1034"/>
  <unicode hex="00F6"/>
  <outline>
    <contour>
      <point x="38" y="458" type="curve" smooth="yes"/>
      <point x="38" y="746"/>
      <point x="229" y="947"/>
      <point x="538" y="947" type="curve" smooth="yes"/>
      <point x="824" y="947"/>
      <point x="995" y="721"/>
      <point x="995" y="458" type="curve" smooth="yes"/>
      <point x="995" y="199"/>
      <point x="813" y="-27"/>
      <point x="488" y="-27" type="curve" smooth="yes"/>
      <point x="218" y="-27"/>
      <point x="38" y="186"/>
    </contour>
    <contour>
      <point x="245" y="515" type="curve" smooth="yes"/>
      <point x="245" y="300"/>
      <point x="326" y="79"/>
      <point x="528" y="79" type="curve" smooth="yes"/>
      <point x="733" y="79"/>
      <point x="781" y="248"/>
      <point x="781" y="412" type="curve" smooth="yes"/>
      <point x="781" y="618"/>
      <point x="700" y="851"/>
      <point x="500" y="851" type="curve" smooth="yes"/>
      <point x="296" y="851"/>
      <point x="245" y="690"/>
    </contour>
    <contour>
      <point x="306" y="1121" type="curve" smooth="yes"/>
      <point x="306" y="1168"/>
      <point x="351" y="1198"/>
      <point x="391" y="1198" type="curve" smooth="yes"/>
      <point x="435" y="1198"/>
      <point x="477" y="1167"/>
      <point x="477" y="1121" type="curve" smooth="yes"/>
      <point x="477" y="1072"/>
      <point x="435" y="1039"/>
      <point x="391" y="1039" type="curve" smooth="yes"/>
      <point x="348" y="1039"/>
      <point x="306" y="1072"/>
    </contour>
    <contour>
      <point x="574" y="1121" type="curve" smooth="yes"/>
      <point x="574" y="1168"/>
      <point x="619" y="1198"/>
      <point x="659" y="1198" type="curve" smooth="yes"/>
      <point x="703" y="1198"/>
      <point x="746" y="1167"/>
      <point x="746" y="1121" type="curve" smooth="yes"/>
      <point x="746" y="1072"/>
      <point x="703" y="1039"/>
      <point x="659" y="1039" type="curve" smooth="yes"/>
      <point x="616" y="1039"/>
      <point x="574" y="1072"/>
    </contour>
  </outline>
</glyph>
<glyph name="divide" format="1">
  <advance width="932"/>
  <unicode hex="00F7"/>
  <outline>
    <contour>
      <point x="55" y="454" type="line"/>
      <point x="67" y="560" type="line"/>
      <point x="879" y="560" type="line"/>
      <point x="868" y="454" type="line"/>
    </contour>
    <contour>
      <point x="341" y="228" type="curve" smooth="yes"/>
      <point x="341" y="292"/>
      <point x="396" y="341"/>
      <point x="460" y="341" type="curve" smooth="yes"/>
      <point x="526" y="341"/>
      <point x="581" y="291"/>
      <point x="581" y="227" type="curve" smooth="yes"/>
      <point x="581" y="160"/>
      <point x="526" y="104"/>
      <point x="460" y="104" type="curve" smooth="yes"/>
      <point x="394" y="104"/>
      <point x="341" y="161"/>
    </contour>
    <contour>
      <point x="341" y="790" type="curve" smooth="yes"/>
      <point x="341" y="854"/>
      <point x="396" y="903"/>
      <point x="460" y="903" type="curve" smooth="yes"/>
      <point x="526" y="903"/>
      <point x="581" y="853"/>
      <point x="581" y="789" type="curve" smooth="yes"/>
      <point x="581" y="722"/>
      <point x="526" y="666"/>
      <point x="460" y="666" type="curve" smooth="yes"/>
      <point x="394" y="666"/>
      <point x="341" y="723"/>
    </contour>
  </outline>
</glyph>
<glyph name="oslash" format="1">
  <advance width="933"/>
  <unicode hex="00F8"/>
  <outline>
    <contour>
      <point x="16" y="458" type="curve" smooth="yes"/>
      <point x="16" y="746"/>
      <point x="207" y="947"/>
      <point x="516" y="947" type="curve" smooth="yes"/>
      <point x="802" y="947"/>
      <point x="973" y="721"/>
      <point x="973" y="458" type="curve" smooth="yes"/>
      <point x="973" y="199"/>
      <point x="791" y="-27"/>
      <point x="466" y="-27" type="curve" smooth="yes"/>
      <point x="196" y="-27"/>
      <point x="16" y="186"/>
    </contour>
    <contour>
      <point x="24" y="-46" type="line"/>
      <point x="180" y="141" type="line"/>
      <point x="228" y="157" type="line"/>
      <point x="729" y="777" type="line"/>
      <point x="727" y="815" type="line"/>
      <point x="828" y="947" type="line"/>
      <point x="983" y="954" type="line"/>
      <point x="832" y="755" type="line"/>
      <point x="773" y="720" type="line"/>
      <point x="274" y="109" type="line"/>
      <point x="279" y="78" type="line"/>
      <point x="187" y="-41" type="line"/>
    </contour>
    <contour>
      <point x="223" y="515" type="curve" smooth="yes"/>
      <point x="223" y="300"/>
      <point x="304" y="79"/>
      <point x="506" y="79" type="curve" smooth="yes"/>
      <point x="711" y="79"/>
      <point x="759" y="248"/>
      <point x="759" y="412" type="curve" smooth="yes"/>
      <point x="759" y="618"/>
      <point x="678" y="851"/>
      <point x="478" y="851" type="curve" smooth="yes"/>
      <point x="274" y="851"/>
      <point x="223" y="690"/>
    </contour>
  </outline>
</glyph>
<glyph name="ugrave" format="1">
  <advance width="1152"/>
  <unicode hex="00F9"/>
  <outline>
    <contour>
      <point x="46" y="854" type="line"/>
      <point x="59" y="930" type="line"/>
      <point x="541" y="930" type="line"/>
      <point x="532" y="854" type="line"/>
      <point x="393" y="816" type="line"/>
      <point x="393" y="360" type="line" smooth="yes"/>
      <point x="393" y="170"/>
      <point x="483" y="105"/>
      <point x="612" y="105" type="curve" smooth="yes"/>
      <point x="752" y="105"/>
      <point x="837" y="154"/>
      <point x="838" y="332" type="curve" smooth="yes"/>
      <point x="841" y="812" type="line"/>
      <point x="688" y="854" type="line"/>
      <point x="698" y="930" type="line"/>
      <point x="1116" y="930" type="line"/>
      <point x="1105" y="854" type="line"/>
      <point x="969" y="816" type="line"/>
      <point x="964" y="365" type="line" smooth="yes"/>
      <point x="961" y="78"/>
      <point x="812" y="-27"/>
      <point x="562" y="-27" type="curve" smooth="yes"/>
      <point x="392" y="-27"/>
      <point x="200" y="30"/>
      <point x="200" y="319" type="curve" smooth="yes"/>
      <point x="200" y="812" type="line"/>
    </contour>
    <contour>
      <point x="391.5" y="1342.2" type="line"/>
      <point x="506.5" y="1380.2" type="line"/>
      <point x="638.5" y="1047.2" type="line"/>
      <point x="582.5" y="1012.2" type="line"/>
    </contour>
  </outline>
</glyph>
<glyph name="udieresis" format="1">
  <advance width="1152"/>
  <unicode hex="00FC"/>
  <outline>
    <contour>
      <point x="46" y="854" type="line"/>
      <point x="59" y="930" type="line"/>
      <point x="541" y="930" type="line"/>
      <point x="532" y="854" type="line"/>
      <point x="393" y="816" type="line"/>
      <point x="393" y="360" type="line" smooth="yes"/>
      <point x="393" y="170"/>
      <point x="483" y="105"/>
      <point x="612" y="105" type="curve" smooth="yes"/>
      <point x="752" y="105"/>
      <point x="837" y="154"/>
      <point x="838" y="332" type="curve" smooth="yes"/>
      <point x="841" y="812" type="line"/>
      <point x="688" y="854" type="line"/>
      <point x="698" y="930" type="line"/>
      <point x="1116" y="930" type="line"/>
      <point x="1105" y="854" type="line"/>
      <point x="969" y="816" type="line"/>
      <point x="964" y="365" type="line" smooth="yes"/>
      <point x="961" y="78"/>
      <point x="812" y="-27"/>
      <point x="562" y="-27" type="curve" smooth="yes"/>
      <point x="392" y="-27"/>
      <point x="200" y="30"/>
      <point x="200" y="319" type="curve" smooth="yes"/>
      <point x="200" y="812" type="line"/>
    </contour>
    <contour>
      <point x="382" y="1141" type="curve" smooth="yes"/>
      <point x="382" y="1188"/>
      <point x="427" y="1218"/>
      <point x="467" y="1218" type="curve" smooth="yes"/>
      <point x="511" y="1218"/>
      <point x="553" y="1187"/>
      <point x="553" y="1141" type="curve" smooth="yes"/>
      <point x="553" y="1092"/>
      <point x="511" y="1059"/>
      <point x="467" y="1059" type="curve" smooth="yes"/>
      <point x="424" y="1059"/>
      <point x="382" y="1092"/>
    </contour>
    <contour>
      <point x="650" y="1141" type="curve" smooth="yes"/>
      <point x="650" y="1188"/>
      <point x="695" y="1218"/>
      <point x="735" y="1218" type="curve" smooth="yes"/>
      <point x="779" y="1218"/>
      <point x="822" y="1187"/>
      <point x="822" y="1141" type="curve" smooth="yes"/>
      <point x="822" y="1092"/>
      <point x="779" y="1059"/>
      <point x="735" y="1059" type="curve" smooth="yes"/>
      <point x="692" y="1059"/>
      <point x="650" y="1092"/>
    </contour>
  </outline>
</glyph>
<glyph name="ydieresis" format="1">
  <advance width="2048"/>
  <unicode hex="00FF"/>
  <outline>
    <contour>
      <point x="6" y="854" type="line"/>
      <point x="19" y="930" type="line"/>
      <point x="477" y="930" type="line"/>
      <point x="465" y="854" type="line"/>
      <point x="347" y="816" type="line"/>
      <point x="523" y="493" type="line"/>
      <point x="691" y="812" type="line"/>
      <point x="568" y="854" type="line"/>
      <point x="578" y="930" type="line"/>
      <point x="933" y="930" type="line"/>
      <point x="923" y="854" type="line"/>
      <point x="828" y="816" type="line"/>
      <point x="580" y="385" type="line"/>
      <point x="580" y="114" type="line"/>
      <point x="731" y="80" type="line"/>
      <point x="721" y="0" type="line"/>
      <point x="237" y="0" type="line"/>
      <point x="247" y="74" type="line"/>
      <point x="387" y="121" type="line"/>
      <point x="387" y="360" type="line"/>
      <point x="134" y="812" type="line"/>
    </contour>
    <contour>
      <point x="281" y="1137" type="curve" smooth="yes"/>
      <point x="281" y="1184"/>
      <point x="326" y="1214"/>
      <point x="366" y="1214" type="curve" smooth="yes"/>
      <point x="410" y="1214"/>
      <point x="452" y="1183"/>
      <point x="452" y="1137" type="curve" smooth="yes"/>
      <point x="452" y="1088"/>
      <point x="410" y="1055"/>
      <point x="366" y="1055" type="curve" smooth="yes"/>
      <point x="323" y="1055"/>
      <point x="281" y="1088"/>
    </contour>
    <contour>
      <point x="549" y="1137" type="curve" smooth="yes"/>
      <point x="549" y="1184"/>
      <point x="594" y="1214"/>
      <point x="634" y="1214" type="curve" smooth="yes"/>
      <point x="678" y="1214"/>
      <point x="721" y="1183"/>
      <point x="721" y="1137" type="curve" smooth="yes"/>
      <point x="721" y="1088"/>
      <point x="678" y="1055"/>
      <point x="634" y="1055" type="curve" smooth="yes"/>
      <point x="591" y="1055"/>
      <point x="549" y="1088"/>
    </contour>
  </outline>
</glyph>
<glyph name="dotaccent" format="1">
  <advance width="425"/>
  <unicode hex="02D9"/>
  <outline>
    <contour>
      <point x="92" y="1479" type="curve" smooth="yes"/>
      <point x="92" y="1543"/>
      <point x="149" y="1593"/>
      <point x="211" y="1593" type="curve" smooth="yes"/>
      <point x="277" y="1593"/>
      <point x="334" y="1542"/>
      <point x="334" y="1478" type="curve" smooth="yes"/>
      <point x="334" y="1411"/>
      <point x="277" y="1355"/>
      <point x="211" y="1355" type="curve" smooth="yes"/>
      <point x="145" y="1355"/>
      <point x="92" y="1412"/>
    </contour>
  </outline>
</glyph>
<glyph name="Germandbls" format="1">
  <advance width="1283"/>
  <unicode hex="1E9E"/>
  <outline>
    <contour>
      <point x="26" y="0" type="line"/>
      <point x="34" y="73" type="line"/>
      <point x="198" y="119" type="line"/>
      <point x="198" y="751" type="line" smooth="yes"/>
      <point x="198" y="1102"/>
      <point x="393" y="1250"/>
      <point x="689" y="1250" type="curve" smooth="yes"/>
      <point x="874" y="1250"/>
      <point x="1169" y="1208"/>
      <point x="1169" y="1032" type="curve" smooth="yes"/>
      <point x="1169" y="956"/>
      <point x="1127" y="923"/>
      <point x="1049" y="897" type="curve"/>
      <point x="1013" y="1001"/>
      <point x="976" y="1112"/>
      <point x="862" y="1112" type="curve" smooth="yes"/>
      <point x="778" y="1112"/>
      <point x="691" y="1028"/>
      <point x="691" y="928" type="curve" smooth="yes"/>
      <point x="691" y="637"/>
      <point x="1232" y="680"/>
      <point x="1232" y="316" type="curve" smooth="yes"/>
      <point x="1232" y="90"/>
      <point x="1050" y="-24"/>
      <point x="826" y="-24" type="curve" smooth="yes"/>
      <point x="684" y="-24"/>
      <point x="549" y="30"/>
      <point x="494" y="121" type="curve"/>
      <point x="507" y="376" type="line"/>
      <point x="602" y="361" type="line"/>
      <point x="637" y="184" type="line"/>
      <point x="673" y="127"/>
      <point x="757" y="76"/>
      <point x="849" y="76" type="curve" smooth="yes"/>
      <point x="953" y="76"/>
      <point x="1050" y="110"/>
      <point x="1050" y="250" type="curve" smooth="yes"/>
      <point x="1050" y="503"/>
      <point x="521" y="468"/>
      <point x="521" y="829" type="curve" smooth="yes"/>
      <point x="521" y="992"/>
      <point x="621" y="1123"/>
      <point x="761" y="1155" type="curve"/>
      <point x="763" y="1158" type="line"/>
      <point x="744" y="1160"/>
      <point x="695" y="1161"/>
      <point x="676" y="1161" type="curve" smooth="yes"/>
      <point x="481" y="1161"/>
      <point x="387" y="1027"/>
      <point x="387" y="774" type="curve" smooth="yes"/>
      <point x="389" y="0" type="line"/>
    </contour>
  </outline>
</glyph>
<glyph name="endash" format="1">
  <advance width="795"/>
  <unicode hex="2013"/>
  <outline>
    <contour>
      <point x="87" y="409" type="line"/>
      <point x="102" y="513" type="line"/>
      <point x="713" y="520" type="line"/>
      <point x="697" y="415" type="line"/>
    </contour>
  </outline>
</glyph>
<glyph name="quoteleft" format="1">
  <advance width="419"/>
  <unicode hex="2018"/>
  <outline>
    <contour>
      <point x="53" y="961" type="curve" smooth="yes"/>
      <point x="53" y="1054"/>
      <point x="86" y="1214"/>
      <point x="349" y="1284" type="curve"/>
      <point x="372" y="1215" type="line"/>
      <point x="241" y="1181"/>
      <point x="190" y="1105"/>
      <point x="190" y="1041" type="curve" smooth="yes"/>
      <point x="190" y="985"/>
      <point x="236" y="934"/>
      <point x="306" y="934" type="curve" smooth="yes"/>
      <point x="316" y="934"/>
      <point x="325" y="936"/>
      <point x="335" y="937" type="curve"/>
      <point x="343" y="916"/>
      <point x="351" y="898"/>
      <point x="351" y="875" type="curve" smooth="yes"/>
      <point x="351" y="795"/>
      <point x="278" y="753"/>
      <point x="228" y="753" type="curve" smooth="yes"/>
      <point x="158" y="753"/>
      <point x="53" y="810"/>
    </contour>
  </outline>
</glyph>
<glyph name="dagger" format="1">
  <advance width="797"/>
  <unicode hex="2020"/>
  <outline>
    <contour>
      <point x="37" y="712" type="line"/>
      <point x="45" y="827" type="line"/>
      <point x="342" y="819" type="line"/>
      <point x="334" y="1255" type="line"/>
      <point x="467" y="1244" type="line"/>
      <point x="458" y="819" type="line"/>
      <point x="764" y="827" type="line"/>
      <point x="756" y="705" type="line"/>
      <point x="458" y="716" type="line"/>
      <point x="473" y="-363" type="line"/>
      <point x="328" y="-351" type="line"/>
      <point x="342" y="718" type="line"/>
    </contour>
  </outline>
</glyph>
<glyph name="guilsinglleft" format="1">
  <advance width="396"/>
  <unicode hex="2039"/>
  <outline>
    <contour>
      <point x="23" y="469" type="line"/>
      <point x="292" y="820" type="line"/>
      <point x="335" y="761" type="line"/>
      <point x="171" y="461" type="line"/>
      <point x="338" y="141" type="line"/>
      <point x="286" y="77" type="line"/>
      <point x="24" y="449" type="line"/>
    </contour>
  </outline>
</glyph>
<glyph name="guilsinglright" format="1">
  <advance width="397"/>
  <unicode hex="203A"/>
  <outline>
    <contour>
      <point x="61" y="141" type="line"/>
      <point x="228" y="461" type="line"/>
      <point x="64" y="761" type="line"/>
      <point x="108" y="820" type="line"/>
      <point x="376" y="469" type="line"/>
      <point x="374" y="449" type="line"/>
      <point x="113" y="77" type="line"/>
    </contour>
  </outline>
</glyph>
<glyph name="Euro" format="1">
  <advance width="1161"/>
  <unicode hex="20AC"/>
  <outline>
    <contour>
      <point x="11" y="312" type="line"/>
      <point x="21" y="411" type="line"/>
      <point x="626" y="411" type="line"/>
      <point x="605" y="312" type="line"/>
    </contour>
    <contour>
      <point x="11" y="487" type="line"/>
      <point x="20" y="586" type="line"/>
      <point x="665" y="586" type="line"/>
      <point x="644" y="487" type="line"/>
    </contour>
    <contour>
      <point x="140" y="432" type="curve" smooth="yes"/>
      <point x="140" y="709"/>
      <point x="330" y="947"/>
      <point x="638" y="947" type="curve" smooth="yes"/>
      <point x="795" y="947"/>
      <point x="876" y="880"/>
      <point x="876" y="880" type="curve"/>
      <point x="855" y="602" type="line"/>
      <point x="757" y="615" type="line"/>
      <point x="735" y="775" type="line"/>
      <point x="715" y="816"/>
      <point x="669" y="852"/>
      <point x="568" y="852" type="curve" smooth="yes"/>
      <point x="423" y="852"/>
      <point x="352" y="744"/>
      <point x="352" y="463" type="curve" smooth="yes"/>
      <point x="352" y="222"/>
      <point x="494" y="103"/>
      <point x="635" y="103" type="curve" smooth="yes"/>
      <point x="780" y="103"/>
      <point x="851" y="161"/>
      <point x="886" y="197" type="curve"/>
      <point x="929" y="120" type="line"/>
      <point x="905" y="75"/>
      <point x="794" y="-24"/>
      <point x="586" y="-24" type="curve" smooth="yes"/>
      <point x="324" y="-24"/>
      <point x="140" y="130"/>
    </contour>
  </outline>
</glyph>
<glyph name="germandbls.alt" format="1">
  <advance width="1063"/>
  <outline>
    <contour>
      <point x="0" y="0" type="line"/>
      <point x="8" y="73" type="line"/>
      <point x="142" y="110" type="line"/>
      <point x="142" y="548" type="line" smooth="yes"/>
      <point x="142" y="830"/>
      <point x="321" y="949"/>
      <point x="593" y="949" type="curve" smooth="yes"/>
      <point x="749" y="949"/>
      <point x="917" y="935"/>
      <point x="992" y="921" type="curve"/>
      <point x="993" y="847" type="line"/>
      <point x="739" y="560" type="line"/>
      <point x="944" y="445"/>
      <point x="1069" y="397"/>
      <point x="1069" y="230" type="curve" smooth="yes"/>
      <point x="1069" y="76"/>
      <point x="905" y="-24"/>
      <point x="739" y="-24" type="curve" smooth="yes"/>
      <point x="578" y="-24"/>
      <point x="485" y="7"/>
      <point x="433" y="59" type="curve"/>
      <point x="466" y="309" type="line"/>
      <point x="568" y="295" type="line"/>
      <point x="587" y="144" type="line"/>
      <point x="626" y="101"/>
      <point x="657" y="75"/>
      <point x="753" y="75" type="curve" smooth="yes"/>
      <point x="850" y="75"/>
      <point x="905" y="116"/>
      <point x="905" y="185" type="curve" smooth="yes"/>
      <point x="905" y="283"/>
      <point x="740" y="352"/>
      <point x="540" y="461" type="curve"/>
      <point x="517" y="509" type="line"/>
      <point x="805" y="823" type="line"/>
      <point x="805" y="828" type="line"/>
      <point x="707" y="871"/>
      <point x="620" y="872"/>
      <point x="534" y="872" type="curve" smooth="yes"/>
      <point x="394" y="872"/>
      <point x="331" y="780"/>
      <point x="331" y="571" type="curve" smooth="yes"/>
      <point x="331" y="0" type="line"/>
    </contour>
  </outline>
</glyph>
